<svg width="588" height="222" viewBox="0 0 588 222" fill="none" xmlns="http://www.w3.org/2000/svg">
<rect width="588" height="222" rx="111" fill="white"/>
<rect x="39.2" y="32.6465" width="156.8" height="156.706" rx="78.3529" fill="#04D772"/>
<mask id="mask0_101_1042" style="mask-type:alpha" maskUnits="userSpaceOnUse" x="39" y="32" width="157" height="158">
<rect x="39.2" y="32.6465" width="156.8" height="156.706" fill="#1C1B1F"/>
</mask>
<g mask="url(#mask0_101_1042)">
<path d="M108.453 141.035L154.513 95.0021L145.367 85.861L108.453 122.752L89.8333 104.143L80.6866 113.285L108.453 141.035ZM117.6 176.293C108.562 176.293 100.069 174.578 92.1199 171.148C84.1711 167.722 77.2566 163.071 71.3766 157.195C65.4966 151.318 60.8427 144.408 57.4149 136.464C53.9827 128.52 52.2666 120.032 52.2666 110.999C52.2666 101.967 53.9827 93.4786 57.4149 85.5345C60.8427 77.5904 65.4966 70.6801 71.3766 64.8036C77.2566 58.9271 84.1711 54.2738 92.1199 50.8437C100.069 47.418 108.562 45.7051 117.6 45.7051C126.638 45.7051 135.131 47.418 143.08 50.8437C151.029 54.2738 157.943 58.9271 163.823 64.8036C169.703 70.6801 174.357 77.5904 177.785 85.5345C181.217 93.4786 182.933 101.967 182.933 110.999C182.933 120.032 181.217 128.52 177.785 136.464C174.357 144.408 169.703 151.318 163.823 157.195C157.943 163.071 151.029 167.722 143.08 171.148C135.131 174.578 126.638 176.293 117.6 176.293ZM117.6 163.235C132.191 163.235 144.55 158.174 154.677 148.054C164.803 137.933 169.867 125.582 169.867 110.999C169.867 96.4169 164.803 84.0654 154.677 73.9448C144.55 63.8242 132.191 58.7639 117.6 58.7639C103.009 58.7639 90.6499 63.8242 80.5233 73.9448C70.3966 84.0654 65.3333 96.4169 65.3333 110.999C65.3333 125.582 70.3966 137.933 80.5233 148.054C90.6499 158.174 103.009 163.235 117.6 163.235Z" fill="white"/>
</g>
</svg>
