<svg width="588" height="222" viewBox="0 0 588 222" fill="none" xmlns="http://www.w3.org/2000/svg">
<rect width="588" height="222" rx="111" fill="white"/>
<rect x="39.2002" y="32.647" width="156.8" height="156.706" rx="78.3529" fill="#04D772"/>
<mask id="mask0_712_3049" style="mask-type:alpha" maskUnits="userSpaceOnUse" x="39" y="32" width="157" height="158">
<rect x="39.2002" y="32.647" width="156.8" height="156.706" fill="#1C1B1F"/>
</mask>
<g mask="url(#mask0_712_3049)">
<path d="M108.453 141.035L154.513 95.0026L145.367 85.8615L108.453 122.753L89.8333 104.144L80.6866 113.285L108.453 141.035ZM117.6 176.294C108.562 176.294 100.069 174.579 92.1199 171.149C84.1711 167.723 77.2566 163.072 71.3766 157.195C65.4966 151.319 60.8427 144.409 57.4149 136.464C53.9827 128.52 52.2666 120.032 52.2666 111C52.2666 101.967 53.9827 93.4791 57.4149 85.535C60.8427 77.5909 65.4966 70.6806 71.3766 64.8041C77.2566 58.9276 84.1711 54.2743 92.1199 50.8442C100.069 47.4184 108.562 45.7056 117.6 45.7056C126.638 45.7056 135.131 47.4184 143.08 50.8442C151.029 54.2743 157.943 58.9276 163.823 64.8041C169.703 70.6806 174.357 77.5909 177.785 85.535C181.217 93.4791 182.933 101.967 182.933 111C182.933 120.032 181.217 128.52 177.785 136.464C174.357 144.409 169.703 151.319 163.823 157.195C157.943 163.072 151.029 167.723 143.08 171.149C135.131 174.579 126.638 176.294 117.6 176.294ZM117.6 163.235C132.191 163.235 144.55 158.175 154.677 148.054C164.803 137.934 169.867 125.582 169.867 111C169.867 96.4173 164.803 84.0659 154.677 73.9453C144.55 63.8247 132.191 58.7644 117.6 58.7644C103.009 58.7644 90.6499 63.8247 80.5233 73.9453C70.3966 84.0659 65.3333 96.4173 65.3333 111C65.3333 125.582 70.3966 137.934 80.5233 148.054C90.6499 158.175 103.009 163.235 117.6 163.235Z" fill="white"/>
</g>
<g filter="url(#filter0_ii_712_3049)">
<path d="M335.09 52.32V140.85H352.38V52.32H335.09ZM347.44 86.12V100.29H368.37V86.12H347.44ZM274.77 156.71V170.49H356.67V156.71H274.77ZM274.77 131.88V159.7H292.06V131.88H274.77ZM261.12 60.77V121.87H318.97V60.77H301.81V78.06H278.28V60.77H261.12ZM278.28 91.19H301.81V108.35H278.28V91.19ZM454.68 52.19V115.5H471.97V52.19H454.68ZM467.29 76.76V90.8H487.96V76.76H467.29ZM382.01 57.26V106.53H399.3V57.26H382.01ZM382.01 97.82V111.99H392.15C409.18 111.99 427.64 110.82 447.27 106.92L445.32 93.01C426.34 96.78 408.53 97.82 392.15 97.82H382.01ZM393.06 121.09V171.27H471.97V121.09H454.81V133.05H410.22V121.09H393.06ZM410.22 146.44H454.81V157.62H410.22V146.44Z" fill="#6069BE"/>
</g>
<defs>
<filter id="filter0_ii_712_3049" x="261.12" y="52.1899" width="226.84" height="135.08" filterUnits="userSpaceOnUse" color-interpolation-filters="sRGB">
<feFlood flood-opacity="0" result="BackgroundImageFix"/>
<feBlend mode="normal" in="SourceGraphic" in2="BackgroundImageFix" result="shape"/>
<feColorMatrix in="SourceAlpha" type="matrix" values="0 0 0 0 0 0 0 0 0 0 0 0 0 0 0 0 0 0 127 0" result="hardAlpha"/>
<feOffset dy="16"/>
<feGaussianBlur stdDeviation="20"/>
<feComposite in2="hardAlpha" operator="arithmetic" k2="-1" k3="1"/>
<feColorMatrix type="matrix" values="0 0 0 0 0.843137 0 0 0 0 0.662745 0 0 0 0 0.968627 0 0 0 1 0"/>
<feBlend mode="color" in2="shape" result="effect1_innerShadow_712_3049"/>
<feColorMatrix in="SourceAlpha" type="matrix" values="0 0 0 0 0 0 0 0 0 0 0 0 0 0 0 0 0 0 127 0" result="hardAlpha"/>
<feOffset dy="16"/>
<feGaussianBlur stdDeviation="20"/>
<feComposite in2="hardAlpha" operator="arithmetic" k2="-1" k3="1"/>
<feColorMatrix type="matrix" values="0 0 0 0 0 0 0 0 0 0 0 0 0 0 0 0 0 0 0.25 0"/>
<feBlend mode="normal" in2="effect1_innerShadow_712_3049" result="effect2_innerShadow_712_3049"/>
</filter>
</defs>
</svg>
