<svg width="158" height="162" viewBox="0 0 158 162" fill="none" xmlns="http://www.w3.org/2000/svg">
<g filter="url(#filter0_d_386_3005)">
<rect width="150" height="150" rx="75" fill="#303BA1" shape-rendering="crispEdges"/>
<mask id="mask0_386_3005" style="mask-type:alpha" maskUnits="userSpaceOnUse" x="0" y="0" width="150" height="150">
<rect width="150" height="150" fill="#D9D9D9"/>
</mask>
<g mask="url(#mask0_386_3005)">
<path d="M50 118.75C48.2292 118.75 46.7437 118.15 45.5438 116.95C44.3479 115.754 43.75 114.271 43.75 112.5C43.75 110.729 44.3479 109.246 45.5438 108.05C46.7437 106.85 48.2292 106.25 50 106.25H88.125C94.6875 106.25 100.39 104.167 105.231 100C110.077 95.8333 112.5 90.625 112.5 84.375C112.5 78.125 110.077 72.9167 105.231 68.75C100.39 64.5833 94.6875 62.5 88.125 62.5H48.75L60.625 74.375C61.7708 75.5208 62.3438 76.9792 62.3438 78.75C62.3438 80.5208 61.7708 81.9792 60.625 83.125C59.4792 84.2708 58.0208 84.8437 56.25 84.8437C54.4792 84.8437 53.0208 84.2708 51.875 83.125L29.375 60.625C28.75 60 28.3062 59.3229 28.0437 58.5937C27.7854 57.8646 27.6562 57.0833 27.6562 56.25C27.6562 55.4167 27.7854 54.6354 28.0437 53.9062C28.3062 53.1771 28.75 52.5 29.375 51.875L51.875 29.375C53.0208 28.2292 54.4792 27.6562 56.25 27.6562C58.0208 27.6562 59.4792 28.2292 60.625 29.375C61.7708 30.5208 62.3438 31.9792 62.3438 33.75C62.3438 35.5208 61.7708 36.9792 60.625 38.125L48.75 50H88.125C98.2292 50 106.902 53.2812 114.144 59.8437C121.381 66.4062 125 74.5833 125 84.375C125 94.1667 121.381 102.344 114.144 108.906C106.902 115.469 98.2292 118.75 88.125 118.75H50Z" fill="white"/>
</g>
</g>
<defs>
<filter id="filter0_d_386_3005" x="0" y="0" width="158" height="162" filterUnits="userSpaceOnUse" color-interpolation-filters="sRGB">
<feFlood flood-opacity="0" result="BackgroundImageFix"/>
<feColorMatrix in="SourceAlpha" type="matrix" values="0 0 0 0 0 0 0 0 0 0 0 0 0 0 0 0 0 0 127 0" result="hardAlpha"/>
<feOffset dx="4" dy="8"/>
<feGaussianBlur stdDeviation="2"/>
<feComposite in2="hardAlpha" operator="out"/>
<feColorMatrix type="matrix" values="0 0 0 0 0 0 0 0 0 0 0 0 0 0 0 0 0 0 0.25 0"/>
<feBlend mode="normal" in2="BackgroundImageFix" result="effect1_dropShadow_386_3005"/>
<feBlend mode="normal" in="SourceGraphic" in2="effect1_dropShadow_386_3005" result="shape"/>
</filter>
</defs>
</svg>
