<svg width="672" height="608" viewBox="0 0 672 608" fill="none" xmlns="http://www.w3.org/2000/svg">
<path d="M0 0H672V608H0V0Z" fill="#233173"/>
<path d="M308.062 414.1V549.7H320.062V414.1H308.062ZM285.112 468.4V478.75H311.212V468.4H285.112ZM277.312 417.1V542.8H289.012V417.1H277.312ZM209.812 505.9V516.25H218.662C239.062 516.25 252.712 515.65 268.912 512.2L267.712 501.85C251.962 505.15 238.462 505.9 218.662 505.9H209.812ZM209.812 430.6V510.55H222.112V440.8H260.212V430.6H209.812ZM404.05 444.25V454.6H445V444.25H404.05ZM404.05 487.15V497.5H445V487.15H404.05ZM379.15 424.45C359.35 424.45 345.4 442.9 345.4 471.7C345.4 500.65 359.35 519.1 379.15 519.1C398.8 519.1 412.9 500.65 412.9 471.7C412.9 442.9 398.8 424.45 379.15 424.45ZM379.15 435.7C392.2 435.7 401.2 449.8 401.2 471.7C401.2 493.75 392.2 508.15 379.15 508.15C366.1 508.15 357.1 493.75 357.1 471.7C357.1 449.8 366.1 435.7 379.15 435.7ZM442.3 413.95V549.85H454.6V413.95H442.3Z" fill="white"/>
<path d="M210 351C204.9 351 200.622 349.272 197.166 345.816C193.722 342.372 192 338.1 192 333V171C192 165.9 193.722 161.622 197.166 158.166C200.622 154.722 204.9 153 210 153C215.1 153 219.378 154.722 222.834 158.166C226.278 161.622 228 165.9 228 171V315H372C377.1 315 381.378 316.728 384.834 320.184C388.278 323.628 390 327.9 390 333C390 338.1 388.278 342.372 384.834 345.816C381.378 349.272 377.1 351 372 351H210ZM300 261C294.9 261 290.628 259.272 287.184 255.816C283.728 252.372 282 248.1 282 243V81C282 75.9 283.728 71.622 287.184 68.166C290.628 64.722 294.9 63 300 63C305.1 63 309.378 64.722 312.834 68.166C316.278 71.622 318 75.9 318 81V225H462C467.1 225 471.372 226.722 474.816 230.166C478.272 233.622 480 237.9 480 243C480 248.1 478.272 252.372 474.816 255.816C471.372 259.272 467.1 261 462 261H300Z" fill="white"/>
</svg>
