<svg width="672" height="608" viewBox="0 0 672 608" fill="none" xmlns="http://www.w3.org/2000/svg">
<path d="M0 0H672V608H0V0Z" fill="#233173"/>
<path d="M260.062 500.35V549.85H272.362V500.35H260.062ZM205.012 496V506.35H327.562V496H205.012ZM259.912 437.35V440.8C259.912 457.75 237.112 472.6 212.662 475.9L217.012 485.8C245.512 481.45 270.862 464.2 270.862 440.8V437.35H259.912ZM261.562 437.35V440.8C261.562 463.9 286.762 481.6 315.112 485.8L319.612 475.9C295.312 472.6 272.362 457.6 272.362 440.8V437.35H261.562ZM216.862 430.75V440.95H315.712V430.75H216.862ZM260.062 414.1V434.35H272.362V414.1H260.062ZM376.75 439.6V446.35C376.75 465.4 363.4 482.2 343.3 489.1L349.45 498.85C372.1 490.9 386.95 470.8 386.95 446.35V439.6H376.75ZM378.85 439.6V446.35C378.85 469.75 394.3 488.95 416.95 496.45L423.1 486.55C403 480.25 389.2 464.35 389.2 446.35V439.6H378.85ZM346.75 432.25V442.3H419.05V432.25H346.75ZM376.75 415V436H389.2V415H376.75ZM414.55 455.8V466.15H448.75V455.8H414.55ZM442 414.25V515.35H454.45V414.25H442ZM367.9 536.5V546.7H458.2V536.5H367.9ZM367.9 506.35V542.05H380.35V506.35H367.9Z" fill="white"/>
<path d="M292.8 293.4H372C376.08 293.4 379.862 292.382 383.347 290.347C386.822 288.302 389.28 285.48 390.72 281.88L420.96 211.32C421.44 210.12 421.8 208.92 422.04 207.72C422.28 206.52 422.4 205.32 422.4 204.12V192.6C422.4 188.52 421.018 185.098 418.253 182.333C415.498 179.578 412.08 178.2 408 178.2H341.76L350.4 129.24C350.88 126.84 350.76 124.56 350.04 122.4C349.32 120.24 348.12 118.32 346.44 116.64L336 106.2L269.76 178.2C267.84 180.12 266.4 182.28 265.44 184.68C264.48 187.08 264 189.72 264 192.6V264.6C264 272.52 266.822 279.302 272.467 284.947C278.102 290.582 284.88 293.4 292.8 293.4ZM336 351C316.08 351 297.36 347.218 279.84 339.653C262.32 332.098 247.08 321.84 234.12 308.88C221.16 295.92 210.902 280.68 203.347 263.16C195.782 245.64 192 226.92 192 207C192 187.08 195.782 168.36 203.347 150.84C210.902 133.32 221.16 118.08 234.12 105.12C247.08 92.16 262.32 81.8976 279.84 74.3328C297.36 66.7776 316.08 63 336 63C355.92 63 374.64 66.7776 392.16 74.3328C409.68 81.8976 424.92 92.16 437.88 105.12C450.84 118.08 461.098 133.32 468.653 150.84C476.218 168.36 480 187.08 480 207C480 226.92 476.218 245.64 468.653 263.16C461.098 280.68 450.84 295.92 437.88 308.88C424.92 321.84 409.68 332.098 392.16 339.653C374.64 347.218 355.92 351 336 351ZM336 322.2C368.16 322.2 395.4 311.04 417.72 288.72C440.04 266.4 451.2 239.16 451.2 207C451.2 174.84 440.04 147.6 417.72 125.28C395.4 102.96 368.16 91.8 336 91.8C303.84 91.8 276.6 102.96 254.28 125.28C231.96 147.6 220.8 174.84 220.8 207C220.8 239.16 231.96 266.4 254.28 288.72C276.6 311.04 303.84 322.2 336 322.2Z" fill="white"/>
<path d="M292.8 293.4H372C376.08 293.4 379.862 292.382 383.347 290.347C386.822 288.302 389.28 285.48 390.72 281.88L420.96 211.32C421.44 210.12 421.8 208.92 422.04 207.72C422.28 206.52 422.4 205.32 422.4 204.12V192.6C422.4 188.52 421.018 185.098 418.253 182.333C415.498 179.578 412.08 178.2 408 178.2H341.76L350.4 129.24C350.88 126.84 350.76 124.56 350.04 122.4C349.32 120.24 348.12 118.32 346.44 116.64L336 106.2L269.76 178.2C267.84 180.12 266.4 182.28 265.44 184.68C264.48 187.08 264 189.72 264 192.6V264.6C264 272.52 266.822 279.302 272.467 284.947C278.102 290.582 284.88 293.4 292.8 293.4ZM336 351C316.08 351 297.36 347.218 279.84 339.653C262.32 332.098 247.08 321.84 234.12 308.88C221.16 295.92 210.902 280.68 203.347 263.16C195.782 245.64 192 226.92 192 207C192 187.08 195.782 168.36 203.347 150.84C210.902 133.32 221.16 118.08 234.12 105.12C247.08 92.16 262.32 81.8976 279.84 74.3328C297.36 66.7776 316.08 63 336 63C355.92 63 374.64 66.7776 392.16 74.3328C409.68 81.8976 424.92 92.16 437.88 105.12C450.84 118.08 461.098 133.32 468.653 150.84C476.218 168.36 480 187.08 480 207C480 226.92 476.218 245.64 468.653 263.16C461.098 280.68 450.84 295.92 437.88 308.88C424.92 321.84 409.68 332.098 392.16 339.653C374.64 347.218 355.92 351 336 351ZM336 322.2C368.16 322.2 395.4 311.04 417.72 288.72C440.04 266.4 451.2 239.16 451.2 207C451.2 174.84 440.04 147.6 417.72 125.28C395.4 102.96 368.16 91.8 336 91.8C303.84 91.8 276.6 102.96 254.28 125.28C231.96 147.6 220.8 174.84 220.8 207C220.8 239.16 231.96 266.4 254.28 288.72C276.6 311.04 303.84 322.2 336 322.2Z" fill="white"/>
</svg>
