<svg width="588" height="223" viewBox="0 0 588 223" fill="none" xmlns="http://www.w3.org/2000/svg">
<rect width="588" height="223" rx="111.5" fill="white"/>
<rect x="39.2" y="32.7949" width="156.8" height="157.412" rx="78.4" fill="#F20404"/>
<mask id="mask0_101_1037" style="mask-type:alpha" maskUnits="userSpaceOnUse" x="39" y="32" width="157" height="159">
<rect x="39.2" y="32.7949" width="156.8" height="157.412" fill="#D9D9D9"/>
</mask>
<g mask="url(#mask0_101_1037)">
<path d="M94.0799 144.294L117.6 120.683L141.12 144.294L150.267 135.112L126.747 111.5L150.267 87.8886L141.12 78.7062L117.6 102.318L94.0799 78.7062L84.9333 87.8886L108.453 111.5L84.9333 135.112L94.0799 144.294ZM117.6 177.089C108.562 177.089 100.069 175.366 92.1199 171.92C84.1711 168.479 77.2566 163.807 71.3766 157.904C65.4966 152.001 60.8427 145.06 57.4149 137.08C53.9827 129.1 52.2666 120.573 52.2666 111.5C52.2666 102.427 53.9827 93.9008 57.4149 85.9209C60.8427 77.941 65.4966 70.9996 71.3766 65.0967C77.2566 59.1937 84.1711 54.5195 92.1199 51.0739C100.069 47.6327 108.562 45.9121 117.6 45.9121C126.638 45.9121 135.131 47.6327 143.08 51.0739C151.029 54.5195 157.943 59.1937 163.823 65.0967C169.703 70.9996 174.357 77.941 177.785 85.9209C181.217 93.9008 182.933 102.427 182.933 111.5C182.933 120.573 181.217 129.1 177.785 137.08C174.357 145.06 169.703 152.001 163.823 157.904C157.943 163.807 151.029 168.479 143.08 171.92C135.131 175.366 126.638 177.089 117.6 177.089ZM117.6 163.971C132.191 163.971 144.55 158.888 154.677 148.722C164.803 138.555 169.867 126.148 169.867 111.5C169.867 96.8523 164.803 84.4452 154.677 74.279C144.55 64.1128 132.191 59.0298 117.6 59.0298C103.009 59.0298 90.6499 64.1128 80.5233 74.279C70.3966 84.4452 65.3333 96.8523 65.3333 111.5C65.3333 126.148 70.3966 138.555 80.5233 148.722C90.6499 158.888 103.009 163.971 117.6 163.971Z" fill="white"/>
</g>
</svg>
