<svg width="1376" height="1280" viewBox="0 0 1376 1280" fill="none" xmlns="http://www.w3.org/2000/svg">
<g filter="url(#filter0_ii_659_3209)">
<rect width="1376" height="1280" fill="#223069" fill-opacity="0.8"/>
</g>
<g filter="url(#filter1_d_659_3209)">
<rect x="213" y="308" width="950" height="800" rx="10" fill="white"/>
</g>
<g filter="url(#filter2_d_659_3209)">
<rect x="521" y="147" width="352" height="90" rx="10" fill="#FCF2CA"/>
</g>
<path d="M549.239 209L549.239 207.054L558.741 196.372C559.982 194.971 560.981 193.773 561.739 192.778C562.496 191.784 563.045 190.866 563.386 190.023C563.737 189.18 563.912 188.304 563.912 187.395C563.912 186.287 563.652 185.321 563.131 184.497C562.619 183.664 561.914 183.015 561.014 182.551C560.115 182.087 559.101 181.855 557.974 181.855C556.781 181.855 555.735 182.111 554.835 182.622C553.945 183.134 553.254 183.834 552.761 184.724C552.269 185.615 552.023 186.637 552.023 187.793L549.48 187.793C549.48 186.183 549.849 184.758 550.588 183.517C551.336 182.267 552.354 181.287 553.642 180.577C554.939 179.866 556.407 179.511 558.045 179.511C559.665 179.511 561.104 179.862 562.364 180.562C563.623 181.254 564.613 182.196 565.332 183.389C566.052 184.582 566.412 185.918 566.412 187.395C566.412 188.465 566.223 189.502 565.844 190.506C565.474 191.509 564.835 192.627 563.926 193.858C563.017 195.089 561.758 196.595 560.148 198.375L552.932 206.429L552.932 206.614L567.321 206.614L567.321 209L549.239 209ZM572.374 194.32L572.374 197L605.054 197L605.054 194.32L572.374 194.32ZM587.094 175.84L587.094 180.88L590.374 180.88L590.374 175.84L587.094 175.84ZM586.934 181.2L586.934 181.8C586.934 185.92 581.294 188.8 574.294 189.4L575.294 191.96C583.214 191.16 589.854 187.72 589.854 181.8L589.854 181.2L586.934 181.2ZM587.614 181.2L587.614 181.8C587.614 187.72 594.254 191.16 602.174 191.96L603.174 189.4C596.174 188.8 590.534 185.92 590.534 181.8L590.534 181.2L587.614 181.2ZM575.734 179.48L575.734 182.12L601.734 182.12L601.734 179.48L575.734 179.48ZM588.694 200.08C580.894 200.08 576.294 202.2 576.294 206.08C576.294 209.96 580.894 212.04 588.694 212.04C596.494 212.04 601.094 209.96 601.094 206.08C601.094 202.2 596.494 200.08 588.694 200.08ZM588.694 202.6C594.414 202.6 597.734 203.8 597.734 206.08C597.734 208.28 594.414 209.52 588.694 209.52C582.974 209.52 579.654 208.28 579.654 206.08C579.654 203.8 582.974 202.6 588.694 202.6ZM630.101 178.72C624.821 178.72 621.101 183.64 621.101 191.32C621.101 199.04 624.821 203.96 630.101 203.96C635.341 203.96 639.101 199.04 639.101 191.32C639.101 183.64 635.341 178.72 630.101 178.72ZM630.101 181.72C633.581 181.72 635.941 185.48 635.941 191.32C635.941 197.2 633.581 201.04 630.101 201.04C626.621 201.04 624.261 197.2 624.261 191.32C624.261 185.48 626.621 181.72 630.101 181.72ZM646.941 175.92L646.941 212.16L650.221 212.16L650.221 175.92L646.941 175.92ZM638.021 189.72L638.021 192.44L648.381 192.44L648.381 189.72L638.021 189.72ZM657.218 194.44L657.218 197.16L689.978 197.16L689.978 194.44L657.218 194.44ZM672.178 196.12L672.178 204.44L675.498 204.44L675.498 196.12L672.178 196.12ZM661.418 177.64L661.418 190.36L685.738 190.36L685.738 177.64L661.418 177.64ZM682.458 180.32L682.458 187.68L664.658 187.68L664.658 180.32L682.458 180.32ZM661.378 208.6L661.378 211.32L686.338 211.32L686.338 208.6L661.378 208.6ZM661.378 200.96L661.378 209.56L664.658 209.56L664.658 200.96L661.378 200.96ZM694.135 179.76L694.135 182.48L715.495 182.48L715.495 179.76L694.135 179.76ZM704.815 184.32C699.615 184.32 696.135 186.88 696.135 190.88C696.135 194.84 699.615 197.36 704.815 197.36C709.935 197.36 713.455 194.84 713.455 190.88C713.455 186.88 709.935 184.32 704.815 184.32ZM704.815 186.92C708.055 186.92 710.295 188.44 710.295 190.88C710.295 193.24 708.055 194.8 704.815 194.8C701.495 194.8 699.295 193.24 699.295 190.88C699.295 188.44 701.495 186.92 704.815 186.92ZM718.775 175.96L718.775 198.56L722.095 198.56L722.095 175.96L718.775 175.96ZM721.175 185.92L721.175 188.68L727.455 188.68L727.455 185.92L721.175 185.92ZM698.615 200.52L698.615 203.24L718.775 203.24L718.775 212.12L722.095 212.12L722.095 200.52L698.615 200.52ZM703.135 175.76L703.135 181.28L706.455 181.28L706.455 175.76L703.135 175.76ZM751.022 181.12L751.022 187C751.022 193.12 746.662 200 741.502 202.52L743.422 205.16C749.062 202.28 753.662 194.52 753.662 187L753.662 181.12L751.022 181.12ZM751.622 181.12L751.622 187C751.622 194.16 755.982 201.44 761.702 204.28L763.582 201.64C758.342 199.16 754.262 192.72 754.262 187L754.262 181.12L751.622 181.12ZM742.782 179.64L742.782 182.44L762.262 182.44L762.262 179.64L742.782 179.64ZM766.542 175.96L766.542 212.12L769.902 212.12L769.902 175.96L766.542 175.96ZM769.102 190.56L769.102 193.36L775.822 193.36L775.822 190.56L769.102 190.56ZM788.018 197.16L788.018 206.04L791.298 206.04L791.298 197.16L788.018 197.16ZM799.578 197.08L799.578 206L802.818 206L802.818 197.08L799.578 197.08ZM778.898 204.92L778.898 207.68L811.658 207.68L811.658 204.92L778.898 204.92ZM782.858 178.64L782.858 181.32L804.338 181.32L804.338 186.92L782.978 186.92L782.978 196.84L786.258 196.84L786.258 189.56L807.618 189.56L807.618 178.64L782.858 178.64ZM782.978 195.36L782.978 198.08L808.458 198.08L808.458 195.36L782.978 195.36ZM841.975 175.96L841.975 194.68L845.295 194.68L845.295 175.96L841.975 175.96ZM821.935 196.52L821.935 199.12L842.055 199.12L842.055 202.72L822.015 202.72L822.015 210.16L825.255 210.16L825.255 205.2L845.335 205.2L845.335 196.52L821.935 196.52ZM822.015 209.08L822.015 211.72L846.535 211.72L846.535 209.08L822.015 209.08ZM825.095 177L825.095 179.76C825.095 185 821.375 189.8 815.935 191.72L817.575 194.36C823.695 192.12 827.855 186.44 827.855 179.76L827.855 177L825.095 177ZM825.695 177L825.695 179.76C825.695 186.24 829.855 191.56 835.935 193.64L837.575 191.04C832.215 189.28 828.415 184.76 828.415 179.76L828.415 177L825.695 177Z" fill="black"/>
<g filter="url(#filter3_d_659_3209)">
<rect x="449" y="353" width="486" height="711" rx="10" fill="#FCF2CA"/>
</g>
<path d="M646.429 422L646.429 420.54L653.556 412.529C654.487 411.478 655.236 410.58 655.804 409.834C656.372 409.088 656.784 408.399 657.04 407.767C657.303 407.135 657.434 406.478 657.434 405.796C657.434 404.965 657.239 404.241 656.848 403.623C656.464 402.998 655.935 402.511 655.261 402.163C654.586 401.815 653.826 401.641 652.981 401.641C652.086 401.641 651.301 401.833 650.626 402.217C649.959 402.6 649.44 403.126 649.071 403.793C648.702 404.461 648.517 405.228 648.517 406.094L646.61 406.094C646.61 404.887 646.887 403.818 647.441 402.888C648.002 401.95 648.766 401.215 649.732 400.683C650.705 400.15 651.805 399.884 653.034 399.884C654.249 399.884 655.328 400.146 656.273 400.672C657.217 401.19 657.96 401.897 658.499 402.792C659.039 403.687 659.309 404.688 659.309 405.796C659.309 406.599 659.167 407.376 658.883 408.129C658.606 408.882 658.126 409.72 657.445 410.643C656.763 411.567 655.818 412.696 654.611 414.031L649.199 420.072L649.199 420.21L659.991 420.21L659.991 422L646.429 422ZM664.74 422L664.74 420.54L671.867 412.529C672.797 411.478 673.546 410.58 674.115 409.834C674.683 409.088 675.095 408.399 675.35 407.767C675.613 407.135 675.744 406.478 675.744 405.796C675.744 404.965 675.549 404.241 675.159 403.623C674.775 402.998 674.246 402.511 673.571 402.163C672.896 401.815 672.137 401.641 671.291 401.641C670.396 401.641 669.612 401.833 668.937 402.217C668.269 402.6 667.751 403.126 667.382 403.793C667.012 404.461 666.828 405.228 666.828 406.094L664.921 406.094C664.921 404.887 665.198 403.818 665.752 402.888C666.313 401.95 667.076 401.215 668.042 400.683C669.015 400.15 670.116 399.884 671.345 399.884C672.559 399.884 673.639 400.146 674.583 400.672C675.528 401.19 676.27 401.897 676.81 402.792C677.35 403.687 677.619 404.688 677.619 405.796C677.619 406.599 677.477 407.376 677.193 408.129C676.916 408.882 676.437 409.72 675.755 410.643C675.073 411.567 674.129 412.696 672.921 414.031L667.509 420.072L667.509 420.21L678.301 420.21L678.301 422L664.74 422ZM689.783 400.182L689.783 422L687.791 422L687.791 402.27L687.663 402.27L682.549 405.668L682.549 403.602L687.706 400.182L689.783 400.182ZM705.316 410.196L705.316 411.986L696.239 411.986L696.239 410.196L705.316 410.196ZM708.978 422L708.978 420.54L716.105 412.529C717.035 411.478 717.785 410.58 718.353 409.834C718.921 409.088 719.333 408.399 719.589 407.767C719.851 407.135 719.983 406.478 719.983 405.796C719.983 404.965 719.787 404.241 719.397 403.623C719.013 402.998 718.484 402.511 717.809 402.163C717.135 401.815 716.375 401.641 715.53 401.641C714.635 401.641 713.85 401.833 713.175 402.217C712.508 402.6 711.989 403.126 711.62 403.793C711.251 404.461 711.066 405.228 711.066 406.094L709.159 406.094C709.159 404.887 709.436 403.818 709.99 402.888C710.551 401.95 711.314 401.215 712.28 400.683C713.253 400.15 714.354 399.884 715.583 399.884C716.797 399.884 717.877 400.146 718.822 400.672C719.766 401.19 720.508 401.897 721.048 402.792C721.588 403.687 721.858 404.688 721.858 405.796C721.858 406.599 721.716 407.376 721.432 408.129C721.155 408.882 720.675 409.72 719.993 410.643C719.312 411.567 718.367 412.696 717.16 414.031L711.748 420.072L711.748 420.21L722.54 420.21L722.54 422L708.978 422Z" fill="black"/>
<g filter="url(#filter4_d_659_3209)">
<rect x="474" y="482" width="435" height="122" rx="10" fill="#D9D9D9"/>
</g>
<g filter="url(#filter5_d_659_3209)">
<rect x="474" y="647" width="435" height="122" rx="10" fill="#FFC107"/>
</g>
<g filter="url(#filter6_d_659_3209)">
<rect x="474" y="818" width="435" height="122" rx="10" fill="#D9D9D9"/>
</g>
<defs>
<filter id="filter0_ii_659_3209" x="0" y="0" width="1380" height="1296" filterUnits="userSpaceOnUse" color-interpolation-filters="sRGB">
<feFlood flood-opacity="0" result="BackgroundImageFix"/>
<feBlend mode="normal" in="SourceGraphic" in2="BackgroundImageFix" result="shape"/>
<feColorMatrix in="SourceAlpha" type="matrix" values="0 0 0 0 0 0 0 0 0 0 0 0 0 0 0 0 0 0 127 0" result="hardAlpha"/>
<feOffset dx="4" dy="16"/>
<feGaussianBlur stdDeviation="20"/>
<feComposite in2="hardAlpha" operator="arithmetic" k2="-1" k3="1"/>
<feColorMatrix type="matrix" values="0 0 0 0 0 0 0 0 0 0 0 0 0 0 0 0 0 0 0.25 0"/>
<feBlend mode="normal" in2="shape" result="effect1_innerShadow_659_3209"/>
<feColorMatrix in="SourceAlpha" type="matrix" values="0 0 0 0 0 0 0 0 0 0 0 0 0 0 0 0 0 0 127 0" result="hardAlpha"/>
<feOffset dx="4" dy="16"/>
<feGaussianBlur stdDeviation="20"/>
<feComposite in2="hardAlpha" operator="arithmetic" k2="-1" k3="1"/>
<feColorMatrix type="matrix" values="0 0 0 0 0 0 0 0 0 0 0 0 0 0 0 0 0 0 0.25 0"/>
<feBlend mode="normal" in2="effect1_innerShadow_659_3209" result="effect2_innerShadow_659_3209"/>
</filter>
<filter id="filter1_d_659_3209" x="209" y="308" width="958" height="808" filterUnits="userSpaceOnUse" color-interpolation-filters="sRGB">
<feFlood flood-opacity="0" result="BackgroundImageFix"/>
<feColorMatrix in="SourceAlpha" type="matrix" values="0 0 0 0 0 0 0 0 0 0 0 0 0 0 0 0 0 0 127 0" result="hardAlpha"/>
<feOffset dy="4"/>
<feGaussianBlur stdDeviation="2"/>
<feComposite in2="hardAlpha" operator="out"/>
<feColorMatrix type="matrix" values="0 0 0 0 0 0 0 0 0 0 0 0 0 0 0 0 0 0 0.25 0"/>
<feBlend mode="normal" in2="BackgroundImageFix" result="effect1_dropShadow_659_3209"/>
<feBlend mode="normal" in="SourceGraphic" in2="effect1_dropShadow_659_3209" result="shape"/>
</filter>
<filter id="filter2_d_659_3209" x="517" y="147" width="360" height="98" filterUnits="userSpaceOnUse" color-interpolation-filters="sRGB">
<feFlood flood-opacity="0" result="BackgroundImageFix"/>
<feColorMatrix in="SourceAlpha" type="matrix" values="0 0 0 0 0 0 0 0 0 0 0 0 0 0 0 0 0 0 127 0" result="hardAlpha"/>
<feOffset dy="4"/>
<feGaussianBlur stdDeviation="2"/>
<feComposite in2="hardAlpha" operator="out"/>
<feColorMatrix type="matrix" values="0 0 0 0 0 0 0 0 0 0 0 0 0 0 0 0 0 0 0.25 0"/>
<feBlend mode="normal" in2="BackgroundImageFix" result="effect1_dropShadow_659_3209"/>
<feBlend mode="normal" in="SourceGraphic" in2="effect1_dropShadow_659_3209" result="shape"/>
</filter>
<filter id="filter3_d_659_3209" x="445" y="353" width="494" height="719" filterUnits="userSpaceOnUse" color-interpolation-filters="sRGB">
<feFlood flood-opacity="0" result="BackgroundImageFix"/>
<feColorMatrix in="SourceAlpha" type="matrix" values="0 0 0 0 0 0 0 0 0 0 0 0 0 0 0 0 0 0 127 0" result="hardAlpha"/>
<feOffset dy="4"/>
<feGaussianBlur stdDeviation="2"/>
<feComposite in2="hardAlpha" operator="out"/>
<feColorMatrix type="matrix" values="0 0 0 0 0 0 0 0 0 0 0 0 0 0 0 0 0 0 0.25 0"/>
<feBlend mode="normal" in2="BackgroundImageFix" result="effect1_dropShadow_659_3209"/>
<feBlend mode="normal" in="SourceGraphic" in2="effect1_dropShadow_659_3209" result="shape"/>
</filter>
<filter id="filter4_d_659_3209" x="470" y="482" width="443" height="130" filterUnits="userSpaceOnUse" color-interpolation-filters="sRGB">
<feFlood flood-opacity="0" result="BackgroundImageFix"/>
<feColorMatrix in="SourceAlpha" type="matrix" values="0 0 0 0 0 0 0 0 0 0 0 0 0 0 0 0 0 0 127 0" result="hardAlpha"/>
<feOffset dy="4"/>
<feGaussianBlur stdDeviation="2"/>
<feComposite in2="hardAlpha" operator="out"/>
<feColorMatrix type="matrix" values="0 0 0 0 0 0 0 0 0 0 0 0 0 0 0 0 0 0 0.25 0"/>
<feBlend mode="normal" in2="BackgroundImageFix" result="effect1_dropShadow_659_3209"/>
<feBlend mode="normal" in="SourceGraphic" in2="effect1_dropShadow_659_3209" result="shape"/>
</filter>
<filter id="filter5_d_659_3209" x="470" y="647" width="443" height="130" filterUnits="userSpaceOnUse" color-interpolation-filters="sRGB">
<feFlood flood-opacity="0" result="BackgroundImageFix"/>
<feColorMatrix in="SourceAlpha" type="matrix" values="0 0 0 0 0 0 0 0 0 0 0 0 0 0 0 0 0 0 127 0" result="hardAlpha"/>
<feOffset dy="4"/>
<feGaussianBlur stdDeviation="2"/>
<feComposite in2="hardAlpha" operator="out"/>
<feColorMatrix type="matrix" values="0 0 0 0 0 0 0 0 0 0 0 0 0 0 0 0 0 0 0.25 0"/>
<feBlend mode="normal" in2="BackgroundImageFix" result="effect1_dropShadow_659_3209"/>
<feBlend mode="normal" in="SourceGraphic" in2="effect1_dropShadow_659_3209" result="shape"/>
</filter>
<filter id="filter6_d_659_3209" x="470" y="818" width="443" height="130" filterUnits="userSpaceOnUse" color-interpolation-filters="sRGB">
<feFlood flood-opacity="0" result="BackgroundImageFix"/>
<feColorMatrix in="SourceAlpha" type="matrix" values="0 0 0 0 0 0 0 0 0 0 0 0 0 0 0 0 0 0 127 0" result="hardAlpha"/>
<feOffset dy="4"/>
<feGaussianBlur stdDeviation="2"/>
<feComposite in2="hardAlpha" operator="out"/>
<feColorMatrix type="matrix" values="0 0 0 0 0 0 0 0 0 0 0 0 0 0 0 0 0 0 0.25 0"/>
<feBlend mode="normal" in2="BackgroundImageFix" result="effect1_dropShadow_659_3209"/>
<feBlend mode="normal" in="SourceGraphic" in2="effect1_dropShadow_659_3209" result="shape"/>
</filter>
</defs>
</svg>
