<svg width="856" height="550" viewBox="0 0 856 550" fill="none" xmlns="http://www.w3.org/2000/svg">
<g filter="url(#filter0_d_3_96)">
<path d="M70 94C70 86.268 76.268 80 84 80H772C779.732 80 786 86.268 786 94V490H70V94Z" fill="#1D2228"/>
<rect x="94" y="100" width="56" height="64" rx="8" fill="#343C45"/>
<path d="M117.668 149H114.832V135.301L110.648 136.73V134.328L117.305 131.879H117.668V149Z" fill="#DADCE0"/>
<path d="M138.545 119.811H136.504L136.279 109.781H138.779L138.545 119.811ZM136.211 122.877C136.211 122.506 136.331 122.2 136.572 121.959C136.813 121.712 137.142 121.588 137.559 121.588C137.975 121.588 138.304 121.712 138.545 121.959C138.786 122.2 138.906 122.506 138.906 122.877C138.906 123.235 138.789 123.535 138.555 123.775C138.32 124.016 137.988 124.137 137.559 124.137C137.129 124.137 136.797 124.016 136.562 123.775C136.328 123.535 136.211 123.235 136.211 122.877Z" fill="#BDC1C6"/>
<rect x="162" y="100" width="56" height="64" rx="8" fill="#343C45"/>
<path d="M189.43 149H177.957V147.043L183.641 140.844C184.461 139.93 185.043 139.168 185.387 138.559C185.738 137.941 185.914 137.324 185.914 136.707C185.914 135.895 185.684 135.238 185.223 134.738C184.77 134.238 184.156 133.988 183.383 133.988C182.461 133.988 181.746 134.27 181.238 134.832C180.73 135.395 180.477 136.164 180.477 137.141H177.629C177.629 136.102 177.863 135.168 178.332 134.34C178.809 133.504 179.484 132.855 180.359 132.395C181.242 131.934 182.258 131.703 183.406 131.703C185.062 131.703 186.367 132.121 187.32 132.957C188.281 133.785 188.762 134.934 188.762 136.402C188.762 137.254 188.52 138.148 188.035 139.086C187.559 140.016 186.773 141.074 185.68 142.262L181.508 146.727H189.43V149Z" fill="#DADCE0"/>
<path d="M213.557 118.941C213.479 120.569 213.078 121.855 212.355 122.799C211.633 123.736 210.653 124.205 209.416 124.205C208.238 124.205 207.45 123.704 207.053 122.701C206.721 123.196 206.333 123.567 205.891 123.814C205.454 124.062 204.995 124.186 204.514 124.186C203.563 124.186 202.84 123.795 202.346 123.014C201.857 122.232 201.672 121.188 201.789 119.879C201.893 118.818 202.15 117.861 202.561 117.008C202.977 116.155 203.501 115.497 204.133 115.035C204.771 114.566 205.448 114.332 206.164 114.332C206.711 114.332 207.193 114.4 207.609 114.537C208.033 114.674 208.527 114.957 209.094 115.387L208.586 120.885C208.462 122.174 208.833 122.818 209.699 122.818C210.363 122.818 210.907 122.464 211.33 121.754C211.76 121.038 211.994 120.113 212.033 118.98C212.144 116.578 211.678 114.739 210.637 113.463C209.602 112.187 208.042 111.549 205.959 111.549C204.683 111.549 203.55 111.868 202.561 112.506C201.577 113.144 200.796 114.068 200.217 115.279C199.637 116.484 199.318 117.857 199.26 119.4C199.182 120.969 199.367 122.324 199.816 123.463C200.272 124.596 200.965 125.458 201.896 126.051C202.834 126.643 203.977 126.939 205.324 126.939C205.871 126.939 206.441 126.874 207.033 126.744C207.632 126.614 208.14 126.438 208.557 126.217L208.928 127.555C208.531 127.815 207.993 128.023 207.316 128.18C206.646 128.342 205.969 128.424 205.285 128.424C203.632 128.424 202.212 128.072 201.027 127.369C199.842 126.673 198.954 125.66 198.361 124.332C197.749 122.958 197.479 121.314 197.551 119.4C197.629 117.617 198.029 116.015 198.752 114.596C199.475 113.17 200.461 112.063 201.711 111.275C202.967 110.488 204.396 110.094 205.998 110.094C207.619 110.094 209.012 110.452 210.178 111.168C211.35 111.878 212.225 112.903 212.805 114.244C213.384 115.579 213.635 117.145 213.557 118.941ZM203.703 119.879C203.618 120.764 203.697 121.438 203.938 121.9C204.178 122.356 204.562 122.584 205.09 122.584C205.441 122.584 205.773 122.431 206.086 122.125C206.398 121.812 206.652 121.386 206.848 120.846L207.287 116.031C206.962 115.908 206.646 115.846 206.34 115.846C205.617 115.846 205.028 116.188 204.572 116.871C204.117 117.548 203.827 118.551 203.703 119.879Z" fill="#BDC1C6"/>
<rect x="230" y="100" width="56" height="64" rx="8" fill="#343C45"/>
<path d="M249.25 139.168H250.984C251.859 139.16 252.551 138.934 253.059 138.488C253.574 138.043 253.832 137.398 253.832 136.555C253.832 135.742 253.617 135.113 253.188 134.668C252.766 134.215 252.117 133.988 251.242 133.988C250.477 133.988 249.848 134.211 249.355 134.656C248.863 135.094 248.617 135.668 248.617 136.379H245.77C245.77 135.504 246 134.707 246.461 133.988C246.93 133.27 247.578 132.711 248.406 132.312C249.242 131.906 250.176 131.703 251.207 131.703C252.91 131.703 254.246 132.133 255.215 132.992C256.191 133.844 256.68 135.031 256.68 136.555C256.68 137.32 256.434 138.043 255.941 138.723C255.457 139.395 254.828 139.902 254.055 140.246C254.992 140.566 255.703 141.07 256.188 141.758C256.68 142.445 256.926 143.266 256.926 144.219C256.926 145.75 256.398 146.969 255.344 147.875C254.297 148.781 252.918 149.234 251.207 149.234C249.566 149.234 248.223 148.797 247.176 147.922C246.129 147.047 245.605 145.883 245.605 144.43H248.453C248.453 145.18 248.703 145.789 249.203 146.258C249.711 146.727 250.391 146.961 251.242 146.961C252.125 146.961 252.82 146.727 253.328 146.258C253.836 145.789 254.09 145.109 254.09 144.219C254.09 143.32 253.824 142.629 253.293 142.145C252.762 141.66 251.973 141.418 250.926 141.418H249.25V139.168Z" fill="#DADCE0"/>
<path d="M274.418 119.996H272.23L271.488 124H269.848L270.59 119.996H268.334V118.453H270.883L271.449 115.396H269.076V113.844H271.742L272.504 109.781H274.135L273.373 113.844H275.57L276.332 109.781H277.963L277.201 113.844H279.232V115.396H276.908L276.342 118.453H278.5V119.996H276.049L275.307 124H273.676L274.418 119.996ZM272.523 118.453H274.711L275.277 115.396H273.09L272.523 118.453Z" fill="#BDC1C6"/>
<rect x="298" y="100" width="56" height="64" rx="8" fill="#343C45"/>
<path d="M323.59 142.918H325.711V145.203H323.59V149H320.742V145.203H313.371L313.289 143.469L320.648 131.938H323.59V142.918ZM316.277 142.918H320.742V135.793L320.531 136.168L316.277 142.918Z" fill="#DADCE0"/>
<path d="M343.814 120.289C343.814 119.736 343.639 119.28 343.287 118.922C342.936 118.557 342.35 118.232 341.529 117.945C340.709 117.652 340.071 117.382 339.615 117.135C338.098 116.321 337.34 115.117 337.34 113.521C337.34 112.441 337.669 111.552 338.326 110.855C338.984 110.159 339.876 109.745 341.002 109.615V107.486H342.564V109.635C343.697 109.798 344.573 110.279 345.191 111.08C345.81 111.874 346.119 112.91 346.119 114.186H343.756C343.756 113.365 343.57 112.721 343.199 112.252C342.835 111.777 342.337 111.539 341.705 111.539C341.08 111.539 340.592 111.708 340.24 112.047C339.889 112.385 339.713 112.87 339.713 113.502C339.713 114.068 339.885 114.524 340.23 114.869C340.582 115.208 341.174 115.53 342.008 115.836C342.841 116.142 343.495 116.425 343.971 116.686C344.446 116.946 344.846 117.245 345.172 117.584C345.497 117.916 345.748 118.3 345.924 118.736C346.1 119.173 346.188 119.684 346.188 120.27C346.188 121.37 345.849 122.262 345.172 122.945C344.501 123.629 343.564 124.033 342.359 124.156V126.061H340.807V124.166C339.518 124.023 338.525 123.561 337.828 122.779C337.138 121.998 336.793 120.963 336.793 119.674H339.166C339.166 120.494 339.371 121.129 339.781 121.578C340.198 122.027 340.784 122.252 341.539 122.252C342.281 122.252 342.844 122.073 343.229 121.715C343.619 121.357 343.814 120.882 343.814 120.289Z" fill="#BDC1C6"/>
<rect x="366" y="100" width="56" height="64" rx="8" fill="#343C45"/>
<path d="M382.719 140.539L383.645 131.938H392.809V134.398H386.012L385.543 138.477C386.332 138.023 387.223 137.797 388.215 137.797C389.84 137.797 391.102 138.316 392 139.355C392.906 140.395 393.359 141.793 393.359 143.551C393.359 145.285 392.859 146.668 391.859 147.699C390.859 148.723 389.488 149.234 387.746 149.234C386.184 149.234 384.887 148.793 383.855 147.91C382.832 147.02 382.277 145.848 382.191 144.395H384.945C385.055 145.223 385.352 145.859 385.836 146.305C386.32 146.742 386.953 146.961 387.734 146.961C388.609 146.961 389.289 146.648 389.773 146.023C390.266 145.398 390.512 144.547 390.512 143.469C390.512 142.43 390.242 141.609 389.703 141.008C389.164 140.398 388.422 140.094 387.477 140.094C386.961 140.094 386.523 140.164 386.164 140.305C385.805 140.438 385.414 140.703 384.992 141.102L382.719 140.539Z" fill="#DADCE0"/>
<path d="M403.123 112.516C403.123 111.656 403.4 110.953 403.953 110.406C404.507 109.853 405.232 109.576 406.131 109.576C407.042 109.576 407.771 109.853 408.318 110.406C408.872 110.953 409.148 111.673 409.148 112.564V113.268C409.148 114.12 408.872 114.82 408.318 115.367C407.771 115.914 407.049 116.188 406.15 116.188C405.271 116.188 404.546 115.921 403.973 115.387C403.406 114.846 403.123 114.12 403.123 113.209V112.516ZM404.783 113.268C404.783 113.717 404.907 114.081 405.154 114.361C405.408 114.635 405.74 114.771 406.15 114.771C406.554 114.771 406.88 114.635 407.127 114.361C407.374 114.081 407.498 113.704 407.498 113.229V112.516C407.498 112.066 407.371 111.702 407.117 111.422C406.87 111.142 406.541 111.002 406.131 111.002C405.721 111.002 405.392 111.145 405.145 111.432C404.904 111.712 404.783 112.083 404.783 112.545V113.268ZM409.959 120.514C409.959 119.641 410.242 118.935 410.809 118.395C411.375 117.854 412.098 117.584 412.977 117.584C413.862 117.584 414.585 117.854 415.145 118.395C415.711 118.935 415.994 119.664 415.994 120.582V121.275C415.994 122.122 415.721 122.822 415.174 123.375C414.633 123.922 413.908 124.195 412.996 124.195C412.085 124.195 411.349 123.925 410.789 123.385C410.236 122.838 409.959 122.118 409.959 121.227V120.514ZM411.619 121.275C411.619 121.718 411.746 122.083 412 122.369C412.26 122.649 412.592 122.789 412.996 122.789C413.413 122.789 413.738 122.656 413.973 122.389C414.214 122.115 414.334 121.734 414.334 121.246V120.514C414.334 120.058 414.207 119.693 413.953 119.42C413.699 119.146 413.374 119.01 412.977 119.01C412.573 119.01 412.244 119.146 411.99 119.42C411.743 119.693 411.619 120.071 411.619 120.553V121.275ZM406.639 122.936L405.418 122.232L412.361 111.119L413.582 111.822L406.639 122.936Z" fill="#BDC1C6"/>
<rect x="434" y="100" width="56" height="64" rx="8" fill="#343C45"/>
<path d="M458.816 131.855V134.211H458.465C456.871 134.234 455.598 134.672 454.645 135.523C453.691 136.375 453.125 137.582 452.945 139.145C453.859 138.184 455.027 137.703 456.449 137.703C457.957 137.703 459.145 138.234 460.012 139.297C460.887 140.359 461.324 141.73 461.324 143.41C461.324 145.145 460.812 146.551 459.789 147.629C458.773 148.699 457.438 149.234 455.781 149.234C454.078 149.234 452.695 148.605 451.633 147.348C450.578 146.09 450.051 144.441 450.051 142.402V141.43C450.051 138.438 450.777 136.094 452.23 134.398C453.691 132.703 455.789 131.855 458.523 131.855H458.816ZM455.758 140C455.133 140 454.559 140.176 454.035 140.527C453.52 140.879 453.141 141.348 452.898 141.934V142.801C452.898 144.066 453.164 145.074 453.695 145.824C454.227 146.566 454.914 146.938 455.758 146.938C456.602 146.938 457.27 146.621 457.762 145.988C458.254 145.355 458.5 144.523 458.5 143.492C458.5 142.461 458.25 141.621 457.75 140.973C457.25 140.324 456.586 140 455.758 140Z" fill="#DADCE0"/>
<path d="M477.49 112.379L475.752 116.881H473.74L476.66 109.781H478.33L481.24 116.881H479.238L477.49 112.379Z" fill="#BDC1C6"/>
<rect x="502" y="100" width="56" height="64" rx="8" fill="#343C45"/>
<path d="M529.312 133.52L522.492 149H519.504L526.312 134.223H517.488V131.938H529.312V133.52Z" fill="#DADCE0"/>
<path d="M539.943 120.162C539.943 119.505 540.122 118.902 540.48 118.355C540.839 117.802 541.545 117.148 542.6 116.393C542.046 115.696 541.659 115.104 541.438 114.615C541.223 114.127 541.115 113.655 541.115 113.199C541.115 112.086 541.454 111.207 542.131 110.562C542.808 109.911 543.719 109.586 544.865 109.586C545.9 109.586 546.747 109.892 547.404 110.504C548.068 111.109 548.4 111.861 548.4 112.76C548.4 113.352 548.251 113.899 547.951 114.4C547.652 114.895 547.16 115.39 546.477 115.885L545.51 116.588L548.254 119.83C548.651 119.049 548.85 118.18 548.85 117.223H550.91C550.91 118.974 550.5 120.41 549.68 121.529L551.77 124H549.016L548.215 123.053C547.199 123.814 545.988 124.195 544.582 124.195C543.176 124.195 542.049 123.824 541.203 123.082C540.363 122.333 539.943 121.36 539.943 120.162ZM544.65 122.301C545.451 122.301 546.2 122.034 546.896 121.5L543.791 117.838L543.488 118.053C542.707 118.645 542.316 119.322 542.316 120.084C542.316 120.742 542.528 121.275 542.951 121.686C543.374 122.096 543.941 122.301 544.65 122.301ZM543.342 113.141C543.342 113.688 543.677 114.374 544.348 115.201L545.432 114.459L545.734 114.215C546.138 113.857 546.34 113.398 546.34 112.838C546.34 112.467 546.2 112.151 545.92 111.891C545.64 111.624 545.285 111.49 544.855 111.49C544.393 111.49 544.025 111.646 543.752 111.959C543.479 112.271 543.342 112.665 543.342 113.141Z" fill="#BDC1C6"/>
<rect x="570" y="100" width="56" height="64" rx="8" fill="#343C45"/>
<path d="M596.703 136.438C596.703 137.273 596.488 138.02 596.059 138.676C595.629 139.324 595.043 139.836 594.301 140.211C595.191 140.625 595.875 141.191 596.352 141.91C596.836 142.629 597.078 143.441 597.078 144.348C597.078 145.848 596.57 147.039 595.555 147.922C594.539 148.797 593.188 149.234 591.5 149.234C589.805 149.234 588.445 148.793 587.422 147.91C586.406 147.027 585.898 145.84 585.898 144.348C585.898 143.434 586.141 142.613 586.625 141.887C587.109 141.16 587.789 140.602 588.664 140.211C587.93 139.836 587.348 139.324 586.918 138.676C586.496 138.02 586.285 137.273 586.285 136.438C586.285 134.984 586.754 133.832 587.691 132.98C588.629 132.129 589.895 131.703 591.488 131.703C593.09 131.703 594.359 132.129 595.297 132.98C596.234 133.832 596.703 134.984 596.703 136.438ZM594.23 144.207C594.23 143.363 593.977 142.684 593.469 142.168C592.969 141.645 592.305 141.383 591.477 141.383C590.648 141.383 589.984 141.641 589.484 142.156C588.992 142.672 588.746 143.355 588.746 144.207C588.746 145.043 588.988 145.711 589.473 146.211C589.965 146.711 590.641 146.961 591.5 146.961C592.359 146.961 593.027 146.719 593.504 146.234C593.988 145.75 594.23 145.074 594.23 144.207ZM593.867 136.543C593.867 135.801 593.652 135.191 593.223 134.715C592.793 134.23 592.215 133.988 591.488 133.988C590.762 133.988 590.188 134.219 589.766 134.68C589.344 135.133 589.133 135.754 589.133 136.543C589.133 137.324 589.344 137.945 589.766 138.406C590.195 138.867 590.773 139.098 591.5 139.098C592.227 139.098 592.801 138.867 593.223 138.406C593.652 137.945 593.867 137.324 593.867 136.543Z" fill="#DADCE0"/>
<path d="M612.318 114.508L609.34 113.648L609.877 111.998L612.826 113.141L612.68 109.781H614.428L614.281 113.199L617.182 112.076L617.709 113.756L614.682 114.615L616.635 117.213L615.219 118.248L613.461 115.436L611.723 118.16L610.297 117.164L612.318 114.508Z" fill="#BDC1C6"/>
<rect x="638" y="100" width="56" height="64" rx="8" fill="#343C45"/>
<path d="M662.031 141.863C661.078 142.871 659.965 143.375 658.691 143.375C657.191 143.375 655.996 142.852 655.105 141.805C654.215 140.75 653.77 139.367 653.77 137.656C653.77 136.531 653.996 135.512 654.449 134.598C654.902 133.684 655.547 132.973 656.383 132.465C657.219 131.957 658.188 131.703 659.289 131.703C661.008 131.703 662.371 132.344 663.379 133.625C664.387 134.906 664.891 136.621 664.891 138.77V139.566C664.891 142.645 664.195 144.992 662.805 146.609C661.414 148.227 659.34 149.047 656.582 149.07H656.242V146.715H656.652C658.332 146.691 659.621 146.289 660.52 145.508C661.418 144.719 661.922 143.504 662.031 141.863ZM659.289 141.148C659.859 141.148 660.395 140.984 660.895 140.656C661.395 140.328 661.781 139.875 662.055 139.297V138.184C662.055 136.926 661.797 135.914 661.281 135.148C660.766 134.383 660.098 134 659.277 134C658.457 134 657.801 134.34 657.309 135.02C656.824 135.691 656.582 136.543 656.582 137.574C656.582 138.645 656.828 139.508 657.32 140.164C657.812 140.82 658.469 141.148 659.289 141.148Z" fill="#DADCE0"/>
<path d="M679.264 118.219C679.264 116.715 679.465 115.289 679.869 113.941C680.273 112.587 680.865 111.38 681.646 110.318C682.428 109.251 683.255 108.502 684.127 108.072L684.596 109.459C683.678 110.156 682.932 111.22 682.359 112.652C681.793 114.078 681.484 115.712 681.432 117.555L681.422 118.395C681.422 120.367 681.699 122.128 682.252 123.678C682.812 125.221 683.593 126.396 684.596 127.203L684.127 128.521C683.255 128.092 682.424 127.34 681.637 126.266C680.855 125.198 680.263 123.993 679.859 122.652C679.462 121.305 679.264 119.827 679.264 118.219Z" fill="#BDC1C6"/>
<rect x="706" y="100" width="56" height="64" rx="8" fill="#343C45"/>
<path d="M733.078 141.816C733.078 144.27 732.617 146.121 731.695 147.371C730.781 148.613 729.387 149.234 727.512 149.234C725.668 149.234 724.277 148.629 723.34 147.418C722.41 146.199 721.934 144.398 721.91 142.016V139.062C721.91 136.609 722.367 134.77 723.281 133.543C724.203 132.316 725.605 131.703 727.488 131.703C729.355 131.703 730.746 132.301 731.66 133.496C732.582 134.691 733.055 136.48 733.078 138.863V141.816ZM730.23 138.629C730.23 137.027 730.012 135.855 729.574 135.113C729.137 134.363 728.441 133.988 727.488 133.988C726.559 133.988 725.875 134.344 725.438 135.055C725 135.758 724.77 136.859 724.746 138.359V142.227C724.746 143.82 724.969 145.008 725.414 145.789C725.859 146.57 726.559 146.961 727.512 146.961C728.426 146.961 729.102 146.602 729.539 145.883C729.977 145.156 730.207 144.023 730.23 142.484V138.629Z" fill="#DADCE0"/>
<path d="M751.766 118.375C751.766 119.82 751.567 121.217 751.17 122.564C750.773 123.906 750.171 125.126 749.363 126.227C748.556 127.333 747.713 128.098 746.834 128.521L746.365 127.203C747.342 126.448 748.113 125.296 748.68 123.746C749.253 122.19 749.539 120.416 749.539 118.424V118.199C749.539 116.389 749.292 114.742 748.797 113.258C748.302 111.767 747.592 110.572 746.668 109.674L746.365 109.4L746.834 108.072C747.667 108.476 748.475 109.192 749.256 110.221C750.037 111.249 750.636 112.402 751.053 113.678C751.469 114.947 751.704 116.259 751.756 117.613L751.766 118.375Z" fill="#BDC1C6"/>
<g filter="url(#filter1_dd_3_96)">
<rect x="94" y="176" width="56" height="64" rx="8" fill="white"/>
<path d="M114.141 210.406C114.141 207.76 114.745 205.661 115.953 204.109C117.161 202.557 118.797 201.781 120.859 201.781C122.745 201.781 124.24 202.443 125.344 203.766L125.562 202.094H128.938V225.5H125.141V217.562C124.036 218.729 122.599 219.312 120.828 219.312C118.807 219.312 117.188 218.526 115.969 216.953C114.75 215.37 114.141 213.188 114.141 210.406ZM117.938 210.734C117.938 212.464 118.276 213.823 118.953 214.812C119.641 215.792 120.589 216.281 121.797 216.281C123.297 216.281 124.411 215.641 125.141 214.359V206.672C124.411 205.443 123.307 204.828 121.828 204.828C120.62 204.828 119.667 205.312 118.969 206.281C118.281 207.25 117.938 208.734 117.938 210.734Z" fill="#3C4043"/>
</g>
<rect x="162" y="176" width="56" height="64" rx="8" fill="#2A3139"/>
<path d="M194.906 213.766L197.594 202.094H201.297L196.688 219H193.562L189.938 207.391L186.375 219H183.25L178.625 202.094H182.328L185.062 213.641L188.531 202.094H191.391L194.906 213.766Z" fill="#DADCE0"/>
<rect x="230" y="176" width="56" height="64" rx="8" fill="#2A3139"/>
<path d="M258.797 219.312C256.391 219.312 254.438 218.557 252.938 217.047C251.448 215.526 250.703 213.505 250.703 210.984V210.516C250.703 208.828 251.026 207.323 251.672 206C252.328 204.667 253.245 203.63 254.422 202.891C255.599 202.151 256.911 201.781 258.359 201.781C260.661 201.781 262.438 202.516 263.688 203.984C264.948 205.453 265.578 207.531 265.578 210.219V211.75H254.531C254.646 213.146 255.109 214.25 255.922 215.062C256.745 215.875 257.776 216.281 259.016 216.281C260.755 216.281 262.172 215.578 263.266 214.172L265.312 216.125C264.635 217.135 263.729 217.922 262.594 218.484C261.469 219.036 260.203 219.312 258.797 219.312ZM258.344 204.828C257.302 204.828 256.458 205.193 255.812 205.922C255.177 206.651 254.771 207.667 254.594 208.969H261.828V208.688C261.745 207.417 261.406 206.458 260.812 205.812C260.219 205.156 259.396 204.828 258.344 204.828Z" fill="#DADCE0"/>
<rect x="298" y="176" width="56" height="64" rx="8" fill="#2A3139"/>
<path d="M331.172 205.562C330.672 205.479 330.156 205.438 329.625 205.438C327.885 205.438 326.714 206.104 326.109 207.438V219H322.312V202.094H325.938L326.031 203.984C326.948 202.516 328.219 201.781 329.844 201.781C330.385 201.781 330.833 201.854 331.188 202L331.172 205.562Z" fill="#DADCE0"/>
<rect x="366" y="176" width="56" height="64" rx="8" fill="#2A3139"/>
<path d="M395.375 197.984V202.094H398.359V204.906H395.375V214.344C395.375 214.99 395.5 215.458 395.75 215.75C396.01 216.031 396.469 216.172 397.125 216.172C397.562 216.172 398.005 216.12 398.453 216.016V218.953C397.589 219.193 396.755 219.312 395.953 219.312C393.036 219.312 391.578 217.703 391.578 214.484V204.906H388.797V202.094H391.578V197.984H395.375Z" fill="#DADCE0"/>
<rect x="434" y="176" width="56" height="64" rx="8" fill="#2A3139"/>
<path d="M462.062 213.562L465.5 202.094H469.547L462.828 221.562C461.797 224.406 460.047 225.828 457.578 225.828C457.026 225.828 456.417 225.734 455.75 225.547V222.609L456.469 222.656C457.427 222.656 458.146 222.479 458.625 222.125C459.115 221.781 459.5 221.198 459.781 220.375L460.328 218.922L454.391 202.094H458.484L462.062 213.562Z" fill="#DADCE0"/>
<rect x="502" y="176" width="56" height="64" rx="8" fill="#2A3139"/>
<path d="M533.297 217.344C532.182 218.656 530.599 219.312 528.547 219.312C526.714 219.312 525.323 218.776 524.375 217.703C523.438 216.63 522.969 215.078 522.969 213.047V202.094H526.766V213C526.766 215.146 527.656 216.219 529.438 216.219C531.281 216.219 532.526 215.557 533.172 214.234V202.094H536.969V219H533.391L533.297 217.344Z" fill="#DADCE0"/>
<rect x="570" y="176" width="56" height="64" rx="8" fill="#2A3139"/>
<path d="M599.891 219H596.094V202.094H599.891V219ZM595.859 197.703C595.859 197.12 596.042 196.635 596.406 196.25C596.781 195.865 597.312 195.672 598 195.672C598.688 195.672 599.219 195.865 599.594 196.25C599.969 196.635 600.156 197.12 600.156 197.703C600.156 198.276 599.969 198.755 599.594 199.141C599.219 199.516 598.688 199.703 598 199.703C597.312 199.703 596.781 199.516 596.406 199.141C596.042 198.755 595.859 198.276 595.859 197.703Z" fill="#DADCE0"/>
<rect x="638" y="176" width="56" height="64" rx="8" fill="#2A3139"/>
<path d="M658.125 210.391C658.125 208.734 658.453 207.245 659.109 205.922C659.766 204.589 660.688 203.568 661.875 202.859C663.062 202.141 664.427 201.781 665.969 201.781C668.25 201.781 670.099 202.516 671.516 203.984C672.943 205.453 673.714 207.401 673.828 209.828L673.844 210.719C673.844 212.385 673.521 213.875 672.875 215.188C672.24 216.5 671.323 217.516 670.125 218.234C668.938 218.953 667.562 219.312 666 219.312C663.615 219.312 661.703 218.521 660.266 216.938C658.839 215.344 658.125 213.224 658.125 210.578V210.391ZM661.922 210.719C661.922 212.458 662.281 213.823 663 214.812C663.719 215.792 664.719 216.281 666 216.281C667.281 216.281 668.276 215.781 668.984 214.781C669.703 213.781 670.062 212.318 670.062 210.391C670.062 208.682 669.693 207.328 668.953 206.328C668.224 205.328 667.229 204.828 665.969 204.828C664.729 204.828 663.745 205.323 663.016 206.312C662.286 207.292 661.922 208.76 661.922 210.719Z" fill="#DADCE0"/>
<rect x="706" y="176" width="56" height="64" rx="8" fill="#2A3139"/>
<path d="M741.734 210.719C741.734 213.333 741.141 215.422 739.953 216.984C738.766 218.536 737.172 219.312 735.172 219.312C733.318 219.312 731.833 218.703 730.719 217.484V225.5H726.922V202.094H730.422L730.578 203.812C731.693 202.458 733.208 201.781 735.125 201.781C737.188 201.781 738.802 202.552 739.969 204.094C741.146 205.625 741.734 207.755 741.734 210.484V210.719ZM737.953 210.391C737.953 208.703 737.615 207.365 736.938 206.375C736.271 205.385 735.312 204.891 734.062 204.891C732.51 204.891 731.396 205.531 730.719 206.812V214.312C731.406 215.625 732.531 216.281 734.094 216.281C735.302 216.281 736.245 215.797 736.922 214.828C737.609 213.849 737.953 212.37 737.953 210.391Z" fill="#DADCE0"/>
<rect x="94" y="252" width="56" height="64" rx="8" fill="#2A3139"/>
<path d="M125.391 295C125.224 294.677 125.078 294.151 124.953 293.422C123.745 294.682 122.266 295.312 120.516 295.312C118.818 295.312 117.432 294.828 116.359 293.859C115.286 292.891 114.75 291.693 114.75 290.266C114.75 288.464 115.417 287.083 116.75 286.125C118.094 285.156 120.01 284.672 122.5 284.672H124.828V283.562C124.828 282.688 124.583 281.99 124.094 281.469C123.604 280.938 122.859 280.672 121.859 280.672C120.995 280.672 120.286 280.891 119.734 281.328C119.182 281.755 118.906 282.302 118.906 282.969H115.109C115.109 282.042 115.417 281.177 116.031 280.375C116.646 279.562 117.479 278.927 118.531 278.469C119.594 278.01 120.776 277.781 122.078 277.781C124.057 277.781 125.635 278.281 126.812 279.281C127.99 280.271 128.594 281.667 128.625 283.469V291.094C128.625 292.615 128.839 293.828 129.266 294.734V295H125.391ZM121.219 292.266C121.969 292.266 122.672 292.083 123.328 291.719C123.995 291.354 124.495 290.865 124.828 290.25V287.062H122.781C121.375 287.062 120.318 287.307 119.609 287.797C118.901 288.286 118.547 288.979 118.547 289.875C118.547 290.604 118.786 291.188 119.266 291.625C119.755 292.052 120.406 292.266 121.219 292.266Z" fill="#DADCE0"/>
<rect x="162" y="252" width="56" height="64" rx="8" fill="#2A3139"/>
<path d="M193.156 290.406C193.156 289.729 192.875 289.214 192.312 288.859C191.76 288.505 190.839 288.193 189.547 287.922C188.255 287.651 187.177 287.307 186.312 286.891C184.417 285.974 183.469 284.646 183.469 282.906C183.469 281.448 184.083 280.229 185.312 279.25C186.542 278.271 188.104 277.781 190 277.781C192.021 277.781 193.651 278.281 194.891 279.281C196.141 280.281 196.766 281.578 196.766 283.172H192.969C192.969 282.443 192.698 281.839 192.156 281.359C191.615 280.87 190.896 280.625 190 280.625C189.167 280.625 188.484 280.818 187.953 281.203C187.432 281.589 187.172 282.104 187.172 282.75C187.172 283.333 187.417 283.786 187.906 284.109C188.396 284.432 189.385 284.76 190.875 285.094C192.365 285.417 193.531 285.807 194.375 286.266C195.229 286.714 195.859 287.255 196.266 287.891C196.682 288.526 196.891 289.297 196.891 290.203C196.891 291.724 196.26 292.958 195 293.906C193.74 294.844 192.089 295.312 190.047 295.312C188.661 295.312 187.427 295.062 186.344 294.562C185.26 294.062 184.417 293.375 183.812 292.5C183.208 291.625 182.906 290.682 182.906 289.672H186.594C186.646 290.568 186.984 291.26 187.609 291.75C188.234 292.229 189.062 292.469 190.094 292.469C191.094 292.469 191.854 292.281 192.375 291.906C192.896 291.521 193.156 291.021 193.156 290.406Z" fill="#DADCE0"/>
<rect x="230" y="252" width="56" height="64" rx="8" fill="#2A3139"/>
<path d="M250.203 286.422C250.203 283.818 250.807 281.729 252.016 280.156C253.224 278.573 254.844 277.781 256.875 277.781C258.667 277.781 260.115 278.406 261.219 279.656V271H265.016V295H261.578L261.391 293.25C260.255 294.625 258.74 295.312 256.844 295.312C254.865 295.312 253.26 294.516 252.031 292.922C250.812 291.328 250.203 289.161 250.203 286.422ZM254 286.75C254 288.469 254.328 289.812 254.984 290.781C255.651 291.74 256.594 292.219 257.812 292.219C259.365 292.219 260.5 291.526 261.219 290.141V282.922C260.521 281.568 259.396 280.891 257.844 280.891C256.615 280.891 255.667 281.38 255 282.359C254.333 283.328 254 284.792 254 286.75Z" fill="#DADCE0"/>
<rect x="298" y="252" width="56" height="64" rx="8" fill="#2A3139"/>
<path d="M323.609 295V280.906H321.031V278.094H323.609V276.547C323.609 274.672 324.13 273.224 325.172 272.203C326.214 271.182 327.672 270.672 329.547 270.672C330.214 270.672 330.922 270.766 331.672 270.953L331.578 273.922C331.161 273.839 330.677 273.797 330.125 273.797C328.312 273.797 327.406 274.729 327.406 276.594V278.094H330.844V280.906H327.406V295H323.609Z" fill="#DADCE0"/>
<rect x="366" y="252" width="56" height="64" rx="8" fill="#2A3139"/>
<path d="M386.203 286.422C386.203 283.797 386.818 281.703 388.047 280.141C389.286 278.568 390.927 277.781 392.969 277.781C394.896 277.781 396.411 278.453 397.516 279.797L397.688 278.094H401.109V294.484C401.109 296.703 400.417 298.453 399.031 299.734C397.656 301.016 395.797 301.656 393.453 301.656C392.214 301.656 391 301.396 389.812 300.875C388.635 300.365 387.74 299.693 387.125 298.859L388.922 296.578C390.089 297.964 391.526 298.656 393.234 298.656C394.495 298.656 395.49 298.312 396.219 297.625C396.948 296.948 397.312 295.948 397.312 294.625V293.484C396.219 294.703 394.76 295.312 392.938 295.312C390.958 295.312 389.339 294.526 388.078 292.953C386.828 291.38 386.203 289.203 386.203 286.422ZM389.984 286.75C389.984 288.448 390.328 289.786 391.016 290.766C391.714 291.734 392.677 292.219 393.906 292.219C395.438 292.219 396.573 291.562 397.312 290.25V282.812C396.594 281.531 395.469 280.891 393.938 280.891C392.688 280.891 391.714 281.385 391.016 282.375C390.328 283.365 389.984 284.823 389.984 286.75Z" fill="#DADCE0"/>
<rect x="434" y="252" width="56" height="64" rx="8" fill="#2A3139"/>
<path d="M458.797 279.938C460.036 278.5 461.604 277.781 463.5 277.781C467.104 277.781 468.932 279.839 468.984 283.953V295H465.188V284.094C465.188 282.927 464.932 282.104 464.422 281.625C463.922 281.135 463.182 280.891 462.203 280.891C460.682 280.891 459.547 281.568 458.797 282.922V295H455V271H458.797V279.938Z" fill="#DADCE0"/>
<rect x="502" y="252" width="56" height="64" rx="8" fill="#2A3139"/>
<path d="M531.891 278.094V296.5C531.891 298.229 531.458 299.547 530.594 300.453C529.74 301.37 528.484 301.828 526.828 301.828C526.13 301.828 525.458 301.74 524.812 301.562V298.562C525.208 298.656 525.656 298.703 526.156 298.703C527.417 298.703 528.062 298.016 528.094 296.641V278.094H531.891ZM527.766 273.703C527.766 273.12 527.948 272.635 528.312 272.25C528.688 271.865 529.219 271.672 529.906 271.672C530.594 271.672 531.125 271.865 531.5 272.25C531.875 272.635 532.062 273.12 532.062 273.703C532.062 274.276 531.875 274.755 531.5 275.141C531.125 275.516 530.594 275.703 529.906 275.703C529.219 275.703 528.688 275.516 528.312 275.141C527.948 274.755 527.766 274.276 527.766 273.703Z" fill="#DADCE0"/>
<rect x="570" y="252" width="56" height="64" rx="8" fill="#2A3139"/>
<path d="M597.078 287.75L595.391 289.484V295H591.594V271H595.391V284.844L596.578 283.359L601.25 278.094H605.812L599.531 285.141L606.484 295H602.094L597.078 287.75Z" fill="#DADCE0"/>
<rect x="638" y="252" width="56" height="64" rx="8" fill="#2A3139"/>
<path d="M667.891 295H664.094V271H667.891V295Z" fill="#DADCE0"/>
<rect x="706" y="252" width="56" height="64" rx="8" fill="#2A3139"/>
<path d="M746.891 286.906C746.766 289.51 746.125 291.568 744.969 293.078C743.812 294.578 742.245 295.328 740.266 295.328C738.38 295.328 737.12 294.526 736.484 292.922C735.953 293.714 735.333 294.307 734.625 294.703C733.927 295.099 733.193 295.297 732.422 295.297C730.901 295.297 729.745 294.672 728.953 293.422C728.172 292.172 727.875 290.5 728.062 288.406C728.229 286.708 728.641 285.177 729.297 283.812C729.964 282.448 730.802 281.396 731.812 280.656C732.833 279.906 733.917 279.531 735.062 279.531C735.938 279.531 736.708 279.641 737.375 279.859C738.052 280.078 738.844 280.531 739.75 281.219L738.938 290.016C738.74 292.078 739.333 293.109 740.719 293.109C741.781 293.109 742.651 292.542 743.328 291.406C744.016 290.26 744.391 288.781 744.453 286.969C744.63 283.125 743.885 280.182 742.219 278.141C740.562 276.099 738.068 275.078 734.734 275.078C732.693 275.078 730.88 275.589 729.297 276.609C727.724 277.63 726.474 279.109 725.547 281.047C724.62 282.974 724.109 285.172 724.016 287.641C723.891 290.151 724.188 292.318 724.906 294.141C725.635 295.953 726.745 297.333 728.234 298.281C729.734 299.229 731.562 299.703 733.719 299.703C734.594 299.703 735.505 299.599 736.453 299.391C737.411 299.182 738.224 298.901 738.891 298.547L739.484 300.688C738.849 301.104 737.99 301.438 736.906 301.688C735.833 301.948 734.75 302.078 733.656 302.078C731.01 302.078 728.74 301.516 726.844 300.391C724.948 299.276 723.526 297.656 722.578 295.531C721.599 293.333 721.167 290.703 721.281 287.641C721.406 284.786 722.047 282.224 723.203 279.953C724.359 277.672 725.938 275.901 727.938 274.641C729.948 273.38 732.234 272.75 734.797 272.75C737.391 272.75 739.62 273.323 741.484 274.469C743.359 275.604 744.76 277.245 745.688 279.391C746.615 281.526 747.016 284.031 746.891 286.906ZM731.125 288.406C730.99 289.823 731.115 290.901 731.5 291.641C731.885 292.37 732.5 292.734 733.344 292.734C733.906 292.734 734.438 292.49 734.938 292C735.438 291.5 735.844 290.818 736.156 289.953L736.859 282.25C736.339 282.052 735.833 281.953 735.344 281.953C734.188 281.953 733.245 282.5 732.516 283.594C731.786 284.677 731.323 286.281 731.125 288.406Z" fill="#DADCE0"/>
<rect x="94" y="328" width="56" height="64" rx="8" fill="#333C45"/>
<path d="M116.92 370.396H127.08C127.605 370.396 128.03 369.971 128.03 369.446V360.812H132.06C132.918 360.812 133.336 359.766 132.716 359.175L122.653 349.586C122.291 349.241 121.724 349.236 121.356 349.573L110.874 359.162C110.234 359.747 110.648 360.812 111.515 360.812H115.97V369.446C115.97 369.971 116.395 370.396 116.92 370.396Z" stroke="#DADCE0" stroke-width="1.5"/>
<rect x="162" y="328" width="56" height="64" rx="8" fill="#2A3139"/>
<path d="M187.953 367.969H196.953V371H183.234V368.516L191.812 357.156H183.391V354.094H196.625V356.5L187.953 367.969Z" fill="#DADCE0"/>
<rect x="230" y="328" width="56" height="64" rx="8" fill="#2A3139"/>
<path d="M257.969 359.656L261.188 354.094H265.406L260.234 362.422L265.578 371H261.391L258.016 365.219L254.656 371H250.438L255.781 362.422L250.625 354.094H254.812L257.969 359.656Z" fill="#DADCE0"/>
<rect x="298" y="328" width="56" height="64" rx="8" fill="#2A3139"/>
<path d="M326.516 368.281C327.464 368.281 328.25 368.005 328.875 367.453C329.5 366.901 329.833 366.219 329.875 365.406H333.453C333.411 366.458 333.083 367.443 332.469 368.359C331.854 369.266 331.021 369.984 329.969 370.516C328.917 371.047 327.781 371.312 326.562 371.312C324.198 371.312 322.323 370.547 320.938 369.016C319.552 367.484 318.859 365.37 318.859 362.672V362.281C318.859 359.708 319.547 357.651 320.922 356.109C322.297 354.557 324.172 353.781 326.547 353.781C328.557 353.781 330.193 354.37 331.453 355.547C332.724 356.714 333.391 358.25 333.453 360.156H329.875C329.833 359.188 329.5 358.391 328.875 357.766C328.26 357.141 327.474 356.828 326.516 356.828C325.286 356.828 324.339 357.276 323.672 358.172C323.005 359.057 322.667 360.406 322.656 362.219V362.828C322.656 364.661 322.984 366.031 323.641 366.938C324.307 367.833 325.266 368.281 326.516 368.281Z" fill="#DADCE0"/>
<rect x="366" y="328" width="56" height="64" rx="8" fill="#2A3139"/>
<path d="M393.984 366.188L397.562 354.094H401.484L395.625 371H392.328L386.422 354.094H390.359L393.984 366.188Z" fill="#DADCE0"/>
<rect x="434" y="328" width="56" height="64" rx="8" fill="#2A3139"/>
<path d="M469.766 362.719C469.766 365.344 469.177 367.432 468 368.984C466.833 370.536 465.224 371.312 463.172 371.312C461.193 371.312 459.651 370.599 458.547 369.172L458.359 371H454.922V347H458.719V355.719C459.812 354.427 461.286 353.781 463.141 353.781C465.203 353.781 466.823 354.547 468 356.078C469.177 357.609 469.766 359.75 469.766 362.5V362.719ZM465.969 362.391C465.969 360.557 465.646 359.182 465 358.266C464.354 357.349 463.417 356.891 462.188 356.891C460.542 356.891 459.385 357.609 458.719 359.047V366.016C459.396 367.484 460.562 368.219 462.219 368.219C463.406 368.219 464.323 367.776 464.969 366.891C465.615 366.005 465.948 364.667 465.969 362.875V362.391Z" fill="#DADCE0"/>
<rect x="502" y="328" width="56" height="64" rx="8" fill="#2A3139"/>
<path d="M526.562 354.094L526.672 356.047C527.922 354.536 529.562 353.781 531.594 353.781C535.115 353.781 536.906 355.797 536.969 359.828V371H533.172V360.047C533.172 358.974 532.938 358.182 532.469 357.672C532.01 357.151 531.255 356.891 530.203 356.891C528.672 356.891 527.531 357.583 526.781 358.969V371H522.984V354.094H526.562Z" fill="#DADCE0"/>
<rect x="570" y="328" width="56" height="64" rx="8" fill="#2A3139"/>
<path d="M589.594 354.094L589.703 355.859C590.891 354.474 592.516 353.781 594.578 353.781C596.839 353.781 598.385 354.646 599.219 356.375C600.448 354.646 602.177 353.781 604.406 353.781C606.271 353.781 607.656 354.297 608.562 355.328C609.479 356.359 609.948 357.88 609.969 359.891V371H606.172V360C606.172 358.927 605.938 358.141 605.469 357.641C605 357.141 604.224 356.891 603.141 356.891C602.276 356.891 601.568 357.125 601.016 357.594C600.474 358.052 600.094 358.656 599.875 359.406L599.891 371H596.094V359.875C596.042 357.885 595.026 356.891 593.047 356.891C591.526 356.891 590.448 357.51 589.812 358.75V371H586.016V354.094H589.594Z" fill="#DADCE0"/>
<rect x="638" y="328" width="56" height="64" rx="8" fill="#2A3139"/>
<path d="M665.844 367C666.552 367 667.099 367.203 667.484 367.609C667.87 368.005 668.062 368.505 668.062 369.109C668.062 369.703 667.87 370.198 667.484 370.594C667.099 370.979 666.552 371.172 665.844 371.172C665.167 371.172 664.63 370.979 664.234 370.594C663.839 370.208 663.641 369.714 663.641 369.109C663.641 368.505 663.833 368.005 664.219 367.609C664.604 367.203 665.146 367 665.844 367Z" fill="#DADCE0"/>
<rect x="706" y="328" width="56" height="64" rx="8" fill="#343C45"/>
<path d="M732.136 354.276L736.697 358.619L741.257 354.276L742.636 355.724L738.147 360L742.636 364.276L741.257 365.724L736.697 361.381L732.136 365.724L730.757 364.276L735.247 360L730.757 355.724L732.136 354.276Z" fill="#DADCE0"/>
<path fill-rule="evenodd" clip-rule="evenodd" d="M728.044 350C727.674 350 727.325 350.171 727.097 350.463L720.253 359.263C719.916 359.697 719.916 360.303 720.253 360.737L727.097 369.537C727.325 369.829 727.674 370 728.044 370H746.747C747.409 370 747.947 369.463 747.947 368.8V351.2C747.947 350.537 747.409 350 746.747 350H728.044ZM722.214 360L728.436 352H745.947V368H728.436L722.214 360Z" fill="#DADCE0"/>
<rect x="94" y="404" width="56" height="64" rx="8" fill="#343C46"/>
<path d="M109.019 442H106.892V431.726L103.754 432.798V430.996L108.746 429.159H109.019V442ZM122.07 442H113.466V440.532L117.729 435.883C118.344 435.197 118.78 434.626 119.038 434.169C119.302 433.706 119.434 433.243 119.434 432.78C119.434 432.171 119.261 431.679 118.915 431.304C118.575 430.929 118.115 430.741 117.535 430.741C116.844 430.741 116.308 430.952 115.927 431.374C115.546 431.796 115.355 432.373 115.355 433.105H113.22C113.22 432.326 113.396 431.626 113.747 431.005C114.104 430.378 114.611 429.892 115.268 429.546C115.93 429.2 116.691 429.027 117.553 429.027C118.795 429.027 119.773 429.341 120.488 429.968C121.209 430.589 121.569 431.45 121.569 432.552C121.569 433.19 121.388 433.861 121.024 434.564C120.667 435.262 120.078 436.056 119.258 436.946L116.129 440.295H122.07V442ZM126.166 434.626H127.467C128.123 434.62 128.642 434.45 129.022 434.116C129.409 433.782 129.603 433.299 129.603 432.666C129.603 432.057 129.441 431.585 129.119 431.251C128.803 430.911 128.316 430.741 127.66 430.741C127.086 430.741 126.614 430.908 126.245 431.242C125.876 431.57 125.691 432.001 125.691 432.534H123.556C123.556 431.878 123.729 431.28 124.074 430.741C124.426 430.202 124.912 429.783 125.533 429.484C126.16 429.18 126.86 429.027 127.634 429.027C128.911 429.027 129.913 429.35 130.64 429.994C131.372 430.633 131.738 431.523 131.738 432.666C131.738 433.24 131.554 433.782 131.185 434.292C130.821 434.796 130.35 435.177 129.77 435.435C130.473 435.675 131.006 436.053 131.369 436.568C131.738 437.084 131.923 437.699 131.923 438.414C131.923 439.562 131.527 440.477 130.736 441.156C129.951 441.836 128.917 442.176 127.634 442.176C126.403 442.176 125.396 441.848 124.61 441.191C123.825 440.535 123.433 439.662 123.433 438.572H125.568C125.568 439.135 125.756 439.592 126.131 439.943C126.512 440.295 127.021 440.471 127.66 440.471C128.322 440.471 128.844 440.295 129.225 439.943C129.605 439.592 129.796 439.082 129.796 438.414C129.796 437.74 129.597 437.222 129.198 436.858C128.8 436.495 128.208 436.313 127.423 436.313H126.166V434.626ZM136.045 438.238C136.045 437.459 136.142 436.838 136.335 436.375C136.528 435.912 136.909 435.405 137.478 434.854C138.052 434.298 138.415 433.902 138.567 433.668C138.802 433.311 138.919 432.924 138.919 432.508C138.919 431.957 138.781 431.538 138.506 431.251C138.236 430.958 137.838 430.812 137.311 430.812C136.807 430.812 136.399 430.955 136.089 431.242C135.784 431.523 135.632 431.907 135.632 432.394H133.496C133.508 431.356 133.859 430.536 134.551 429.933C135.248 429.329 136.168 429.027 137.311 429.027C138.488 429.027 139.405 429.326 140.062 429.924C140.724 430.521 141.055 431.356 141.055 432.429C141.055 433.384 140.609 434.324 139.719 435.25L138.638 436.313C138.251 436.753 138.052 437.395 138.04 438.238H136.045ZM135.896 440.972C135.896 440.626 136.004 440.348 136.221 440.137C136.438 439.92 136.73 439.812 137.1 439.812C137.475 439.812 137.771 439.923 137.987 440.146C138.204 440.362 138.312 440.638 138.312 440.972C138.312 441.294 138.207 441.563 137.996 441.78C137.785 441.997 137.486 442.105 137.1 442.105C136.713 442.105 136.414 441.997 136.203 441.78C135.998 441.563 135.896 441.294 135.896 440.972Z" fill="#DADCE0"/>
<rect x="162" y="404" width="56" height="64" rx="8" fill="#2A3139"/>
<path d="M194 443V429L186 435.741L194 443Z" fill="#C4C4C4"/>
<rect x="230" y="404" width="56" height="64" rx="8" fill="#2A3139"/>
<path d="M254 443V429L262 435.741L254 443Z" fill="#C4C4C4"/>
<rect x="298" y="404" width="192" height="64" rx="8" fill="#2A3139"/>
<path d="M385 433V439.5H403V433" stroke="#DADCE0" stroke-width="2"/>
<rect x="502" y="404" width="56" height="64" rx="8" fill="#2A3139"/>
<path d="M534.062 438.859H525.859V435.797H534.062V438.859Z" fill="#DADCE0"/>
<rect x="570" y="404" width="56" height="64" rx="8" fill="#2A3139"/>
<path d="M605.156 449.984H590.828V447H605.156V449.984Z" fill="#DADCE0"/>
<rect x="638" y="404" width="124" height="64" rx="8" fill="#3A4B5D"/>
<path d="M690 436H710M710 436L702.5 429M710 436L702.5 443" stroke="#DADCE0" stroke-width="2"/>
</g>
<defs>
<filter id="filter0_d_3_96" x="0" y="0" width="856" height="550" filterUnits="userSpaceOnUse" color-interpolation-filters="sRGB">
<feFlood flood-opacity="0" result="BackgroundImageFix"/>
<feColorMatrix in="SourceAlpha" type="matrix" values="0 0 0 0 0 0 0 0 0 0 0 0 0 0 0 0 0 0 127 0" result="hardAlpha"/>
<feOffset dy="-10"/>
<feGaussianBlur stdDeviation="35"/>
<feColorMatrix type="matrix" values="0 0 0 0 0 0 0 0 0 0 0 0 0 0 0 0 0 0 0.4 0"/>
<feBlend mode="normal" in2="BackgroundImageFix" result="effect1_dropShadow_3_96"/>
<feBlend mode="normal" in="SourceGraphic" in2="effect1_dropShadow_3_96" result="shape"/>
</filter>
<filter id="filter1_dd_3_96" x="74" y="160" width="116" height="124" filterUnits="userSpaceOnUse" color-interpolation-filters="sRGB">
<feFlood flood-opacity="0" result="BackgroundImageFix"/>
<feColorMatrix in="SourceAlpha" type="matrix" values="0 0 0 0 0 0 0 0 0 0 0 0 0 0 0 0 0 0 127 0" result="hardAlpha"/>
<feOffset dx="10" dy="10"/>
<feGaussianBlur stdDeviation="5"/>
<feColorMatrix type="matrix" values="0 0 0 0 0 0 0 0 0 0 0 0 0 0 0 0 0 0 0.5 0"/>
<feBlend mode="normal" in2="BackgroundImageFix" result="effect1_dropShadow_3_96"/>
<feColorMatrix in="SourceAlpha" type="matrix" values="0 0 0 0 0 0 0 0 0 0 0 0 0 0 0 0 0 0 127 0" result="hardAlpha"/>
<feOffset dx="10" dy="14"/>
<feGaussianBlur stdDeviation="15"/>
<feColorMatrix type="matrix" values="0 0 0 0 0 0 0 0 0 0 0 0 0 0 0 0 0 0 0.8 0"/>
<feBlend mode="normal" in2="effect1_dropShadow_3_96" result="effect2_dropShadow_3_96"/>
<feBlend mode="normal" in="SourceGraphic" in2="effect2_dropShadow_3_96" result="shape"/>
</filter>
</defs>
</svg>
