<svg width="1376" height="1280" viewBox="0 0 1376 1280" fill="none" xmlns="http://www.w3.org/2000/svg">
<g filter="url(#filter0_ii_659_3209)">
<rect width="1376" height="1280" fill="#223069" fill-opacity="0.8"/>
</g>
<g filter="url(#filter1_d_659_3209)">
<rect x="213" y="308" width="950" height="800" rx="10" fill="white"/>
</g>
<g filter="url(#filter2_d_659_3209)">
<rect x="521" y="147" width="352" height="90" rx="10" fill="#FCF2CA"/>
</g>
<path d="M549.239 209L549.239 207.054L558.741 196.372C559.982 194.971 560.981 193.773 561.739 192.778C562.496 191.784 563.045 190.866 563.386 190.023C563.737 189.18 563.912 188.304 563.912 187.395C563.912 186.287 563.652 185.321 563.131 184.497C562.619 183.664 561.914 183.015 561.014 182.551C560.115 182.087 559.101 181.855 557.974 181.855C556.781 181.855 555.735 182.111 554.835 182.622C553.945 183.134 553.254 183.834 552.761 184.724C552.269 185.615 552.023 186.637 552.023 187.793L549.48 187.793C549.48 186.183 549.849 184.758 550.588 183.517C551.336 182.267 552.354 181.287 553.642 180.577C554.939 179.866 556.407 179.511 558.045 179.511C559.665 179.511 561.104 179.862 562.364 180.562C563.623 181.254 564.613 182.196 565.332 183.389C566.052 184.582 566.412 185.918 566.412 187.395C566.412 188.465 566.223 189.502 565.844 190.506C565.474 191.509 564.835 192.627 563.926 193.858C563.017 195.089 561.758 196.595 560.148 198.375L552.932 206.429L552.932 206.614L567.321 206.614L567.321 209L549.239 209ZM572.374 194.32L572.374 197L605.054 197L605.054 194.32L572.374 194.32ZM587.094 175.84L587.094 180.88L590.374 180.88L590.374 175.84L587.094 175.84ZM586.934 181.2L586.934 181.8C586.934 185.92 581.294 188.8 574.294 189.4L575.294 191.96C583.214 191.16 589.854 187.72 589.854 181.8L589.854 181.2L586.934 181.2ZM587.614 181.2L587.614 181.8C587.614 187.72 594.254 191.16 602.174 191.96L603.174 189.4C596.174 188.8 590.534 185.92 590.534 181.8L590.534 181.2L587.614 181.2ZM575.734 179.48L575.734 182.12L601.734 182.12L601.734 179.48L575.734 179.48ZM588.694 200.08C580.894 200.08 576.294 202.2 576.294 206.08C576.294 209.96 580.894 212.04 588.694 212.04C596.494 212.04 601.094 209.96 601.094 206.08C601.094 202.2 596.494 200.08 588.694 200.08ZM588.694 202.6C594.414 202.6 597.734 203.8 597.734 206.08C597.734 208.28 594.414 209.52 588.694 209.52C582.974 209.52 579.654 208.28 579.654 206.08C579.654 203.8 582.974 202.6 588.694 202.6ZM630.101 178.72C624.821 178.72 621.101 183.64 621.101 191.32C621.101 199.04 624.821 203.96 630.101 203.96C635.341 203.96 639.101 199.04 639.101 191.32C639.101 183.64 635.341 178.72 630.101 178.72ZM630.101 181.72C633.581 181.72 635.941 185.48 635.941 191.32C635.941 197.2 633.581 201.04 630.101 201.04C626.621 201.04 624.261 197.2 624.261 191.32C624.261 185.48 626.621 181.72 630.101 181.72ZM646.941 175.92L646.941 212.16L650.221 212.16L650.221 175.92L646.941 175.92ZM638.021 189.72L638.021 192.44L648.381 192.44L648.381 189.72L638.021 189.72ZM657.218 194.44L657.218 197.16L689.978 197.16L689.978 194.44L657.218 194.44ZM672.178 196.12L672.178 204.44L675.498 204.44L675.498 196.12L672.178 196.12ZM661.418 177.64L661.418 190.36L685.738 190.36L685.738 177.64L661.418 177.64ZM682.458 180.32L682.458 187.68L664.658 187.68L664.658 180.32L682.458 180.32ZM661.378 208.6L661.378 211.32L686.338 211.32L686.338 208.6L661.378 208.6ZM661.378 200.96L661.378 209.56L664.658 209.56L664.658 200.96L661.378 200.96ZM694.135 179.76L694.135 182.48L715.495 182.48L715.495 179.76L694.135 179.76ZM704.815 184.32C699.615 184.32 696.135 186.88 696.135 190.88C696.135 194.84 699.615 197.36 704.815 197.36C709.935 197.36 713.455 194.84 713.455 190.88C713.455 186.88 709.935 184.32 704.815 184.32ZM704.815 186.92C708.055 186.92 710.295 188.44 710.295 190.88C710.295 193.24 708.055 194.8 704.815 194.8C701.495 194.8 699.295 193.24 699.295 190.88C699.295 188.44 701.495 186.92 704.815 186.92ZM718.775 175.96L718.775 198.56L722.095 198.56L722.095 175.96L718.775 175.96ZM721.175 185.92L721.175 188.68L727.455 188.68L727.455 185.92L721.175 185.92ZM698.615 200.52L698.615 203.24L718.775 203.24L718.775 212.12L722.095 212.12L722.095 200.52L698.615 200.52ZM703.135 175.76L703.135 181.28L706.455 181.28L706.455 175.76L703.135 175.76ZM751.022 181.12L751.022 187C751.022 193.12 746.662 200 741.502 202.52L743.422 205.16C749.062 202.28 753.662 194.52 753.662 187L753.662 181.12L751.022 181.12ZM751.622 181.12L751.622 187C751.622 194.16 755.982 201.44 761.702 204.28L763.582 201.64C758.342 199.16 754.262 192.72 754.262 187L754.262 181.12L751.622 181.12ZM742.782 179.64L742.782 182.44L762.262 182.44L762.262 179.64L742.782 179.64ZM766.542 175.96L766.542 212.12L769.902 212.12L769.902 175.96L766.542 175.96ZM769.102 190.56L769.102 193.36L775.822 193.36L775.822 190.56L769.102 190.56ZM788.018 197.16L788.018 206.04L791.298 206.04L791.298 197.16L788.018 197.16ZM799.578 197.08L799.578 206L802.818 206L802.818 197.08L799.578 197.08ZM778.898 204.92L778.898 207.68L811.658 207.68L811.658 204.92L778.898 204.92ZM782.858 178.64L782.858 181.32L804.338 181.32L804.338 186.92L782.978 186.92L782.978 196.84L786.258 196.84L786.258 189.56L807.618 189.56L807.618 178.64L782.858 178.64ZM782.978 195.36L782.978 198.08L808.458 198.08L808.458 195.36L782.978 195.36ZM841.975 175.96L841.975 194.68L845.295 194.68L845.295 175.96L841.975 175.96ZM821.935 196.52L821.935 199.12L842.055 199.12L842.055 202.72L822.015 202.72L822.015 210.16L825.255 210.16L825.255 205.2L845.335 205.2L845.335 196.52L821.935 196.52ZM822.015 209.08L822.015 211.72L846.535 211.72L846.535 209.08L822.015 209.08ZM825.095 177L825.095 179.76C825.095 185 821.375 189.8 815.935 191.72L817.575 194.36C823.695 192.12 827.855 186.44 827.855 179.76L827.855 177L825.095 177ZM825.695 177L825.695 179.76C825.695 186.24 829.855 191.56 835.935 193.64L837.575 191.04C832.215 189.28 828.415 184.76 828.415 179.76L828.415 177L825.695 177Z" fill="black"/>
<g filter="url(#filter3_d_659_3209)">
<rect x="263" y="401" width="140" height="180" rx="10" fill="#D9D9D9"/>
</g>
<g filter="url(#filter4_d_659_3209)">
<rect x="263" y="736" width="140" height="180" rx="10" fill="#D9D9D9"/>
</g>
<g filter="url(#filter5_d_659_3209)">
<rect x="733" y="736" width="140" height="180" rx="10" fill="#D9D9D9"/>
</g>
<g filter="url(#filter6_d_659_3209)">
<rect x="953" y="738" width="140" height="180" rx="10" fill="#D9D9D9"/>
</g>
<g filter="url(#filter7_d_659_3209)">
<rect x="492" y="736" width="140" height="180" rx="10" fill="#D9D9D9"/>
</g>
<g filter="url(#filter8_d_659_3209)">
<rect x="493" y="401" width="140" height="180" rx="10" fill="#FCF2CA"/>
</g>
<g filter="url(#filter9_d_659_3209)">
<rect x="733" y="401" width="140" height="180" rx="10" fill="#D9D9D9"/>
</g>
<g filter="url(#filter10_d_659_3209)">
<rect x="953" y="401" width="140" height="180" rx="10" fill="#D9D9D9"/>
</g>
<path d="M303.462 504L303.462 502.54L310.589 494.529C311.52 493.478 312.269 492.58 312.837 491.834C313.405 491.088 313.817 490.399 314.073 489.767C314.336 489.135 314.467 488.478 314.467 487.796C314.467 486.965 314.272 486.241 313.881 485.623C313.498 484.998 312.969 484.511 312.294 484.163C311.619 483.815 310.859 483.641 310.014 483.641C309.119 483.641 308.334 483.833 307.66 484.217C306.992 484.6 306.474 485.126 306.104 485.793C305.735 486.461 305.55 487.228 305.55 488.094L303.643 488.094C303.643 486.887 303.92 485.818 304.474 484.888C305.035 483.95 305.799 483.215 306.765 482.683C307.738 482.15 308.839 481.884 310.067 481.884C311.282 481.884 312.361 482.146 313.306 482.672C314.251 483.19 314.993 483.897 315.532 484.792C316.072 485.687 316.342 486.688 316.342 487.796C316.342 488.599 316.2 489.376 315.916 490.129C315.639 490.882 315.16 491.72 314.478 492.643C313.796 493.567 312.851 494.696 311.644 496.031L306.232 502.072L306.232 502.21L317.024 502.21L317.024 504L303.462 504ZM321.773 504L321.773 502.54L328.9 494.529C329.83 493.478 330.58 492.58 331.148 491.834C331.716 491.088 332.128 490.399 332.384 489.767C332.646 489.135 332.778 488.478 332.778 487.796C332.778 486.965 332.582 486.241 332.192 485.623C331.808 484.998 331.279 484.511 330.604 484.163C329.93 483.815 329.17 483.641 328.325 483.641C327.43 483.641 326.645 483.833 325.97 484.217C325.303 484.6 324.784 485.126 324.415 485.793C324.045 486.461 323.861 487.228 323.861 488.094L321.954 488.094C321.954 486.887 322.231 485.818 322.785 484.888C323.346 483.95 324.109 483.215 325.075 482.683C326.048 482.15 327.149 481.884 328.378 481.884C329.592 481.884 330.672 482.146 331.616 482.672C332.561 483.19 333.303 483.897 333.843 484.792C334.383 485.687 334.653 486.688 334.653 487.796C334.653 488.599 334.511 489.376 334.227 490.129C333.95 490.882 333.47 491.72 332.788 492.643C332.107 493.567 331.162 494.696 329.955 496.031L324.543 502.072L324.543 502.21L335.335 502.21L335.335 504L321.773 504ZM346.816 482.182L346.816 504L344.824 504L344.824 484.27L344.696 484.27L339.583 487.668L339.583 485.602L344.739 482.182L346.816 482.182ZM362.349 492.196L362.349 493.986L353.272 493.986L353.272 492.196L362.349 492.196ZM373.769 482.182L373.769 504L371.777 504L371.777 484.27L371.649 484.27L366.536 487.668L366.536 485.602L371.692 482.182L373.769 482.182Z" fill="black"/>
<path d="M523.429 504L523.429 502.54L530.556 494.529C531.487 493.478 532.236 492.58 532.804 491.834C533.372 491.088 533.784 490.399 534.04 489.767C534.303 489.135 534.434 488.478 534.434 487.796C534.434 486.965 534.239 486.241 533.848 485.623C533.464 484.998 532.935 484.511 532.261 484.163C531.586 483.815 530.826 483.641 529.981 483.641C529.086 483.641 528.301 483.833 527.626 484.217C526.959 484.6 526.44 485.126 526.071 485.793C525.702 486.461 525.517 487.228 525.517 488.094L523.61 488.094C523.61 486.887 523.887 485.818 524.441 484.888C525.002 483.95 525.766 483.215 526.732 482.683C527.705 482.15 528.805 481.884 530.034 481.884C531.249 481.884 532.328 482.146 533.273 482.672C534.217 483.19 534.96 483.897 535.499 484.792C536.039 485.687 536.309 486.688 536.309 487.796C536.309 488.599 536.167 489.376 535.883 490.129C535.606 490.882 535.126 491.72 534.445 492.643C533.763 493.567 532.818 494.696 531.611 496.031L526.199 502.072L526.199 502.21L536.991 502.21L536.991 504L523.429 504ZM541.74 504L541.74 502.54L548.867 494.529C549.797 493.478 550.546 492.58 551.115 491.834C551.683 491.088 552.095 490.399 552.35 489.767C552.613 489.135 552.744 488.478 552.744 487.796C552.744 486.965 552.549 486.241 552.159 485.623C551.775 484.998 551.246 484.511 550.571 484.163C549.896 483.815 549.137 483.641 548.291 483.641C547.396 483.641 546.612 483.833 545.937 484.217C545.269 484.6 544.751 485.126 544.382 485.793C544.012 486.461 543.828 487.228 543.828 488.094L541.921 488.094C541.921 486.887 542.198 485.818 542.752 484.888C543.313 483.95 544.076 483.215 545.042 482.683C546.015 482.15 547.116 481.884 548.345 481.884C549.559 481.884 550.639 482.146 551.583 482.672C552.528 483.19 553.27 483.897 553.81 484.792C554.35 485.687 554.619 486.688 554.619 487.796C554.619 488.599 554.477 489.376 554.193 490.129C553.916 490.882 553.437 491.72 552.755 492.643C552.073 493.567 551.129 494.696 549.921 496.031L544.509 502.072L544.509 502.21L555.301 502.21L555.301 504L541.74 504ZM566.783 482.182L566.783 504L564.791 504L564.791 484.27L564.663 484.27L559.549 487.668L559.549 485.602L564.706 482.182L566.783 482.182ZM582.316 492.196L582.316 493.986L573.239 493.986L573.239 492.196L582.316 492.196ZM585.978 504L585.978 502.54L593.105 494.529C594.035 493.478 594.785 492.58 595.353 491.834C595.921 491.088 596.333 490.399 596.589 489.767C596.851 489.135 596.983 488.478 596.983 487.796C596.983 486.965 596.787 486.241 596.397 485.623C596.013 484.998 595.484 484.511 594.809 484.163C594.135 483.815 593.375 483.641 592.53 483.641C591.635 483.641 590.85 483.833 590.175 484.217C589.508 484.6 588.989 485.126 588.62 485.793C588.251 486.461 588.066 487.228 588.066 488.094L586.159 488.094C586.159 486.887 586.436 485.818 586.99 484.888C587.551 483.95 588.314 483.215 589.28 482.683C590.253 482.15 591.354 481.884 592.583 481.884C593.797 481.884 594.877 482.146 595.822 482.672C596.766 483.19 597.508 483.897 598.048 484.792C598.588 485.687 598.858 486.688 598.858 487.796C598.858 488.599 598.716 489.376 598.432 490.129C598.155 490.882 597.675 491.72 596.993 492.643C596.312 493.567 595.367 494.696 594.16 496.031L588.748 502.072L588.748 502.21L599.54 502.21L599.54 504L585.978 504Z" fill="black"/>
<path d="M763.429 504L763.429 502.54L770.556 494.529C771.487 493.478 772.236 492.58 772.804 491.834C773.372 491.088 773.784 490.399 774.04 489.767C774.303 489.135 774.434 488.478 774.434 487.796C774.434 486.965 774.239 486.241 773.848 485.623C773.464 484.998 772.935 484.511 772.261 484.163C771.586 483.815 770.826 483.641 769.981 483.641C769.086 483.641 768.301 483.833 767.626 484.217C766.959 484.6 766.44 485.126 766.071 485.793C765.702 486.461 765.517 487.228 765.517 488.094L763.61 488.094C763.61 486.887 763.887 485.818 764.441 484.888C765.002 483.95 765.766 483.215 766.732 482.683C767.705 482.15 768.805 481.884 770.034 481.884C771.249 481.884 772.328 482.146 773.273 482.672C774.217 483.19 774.96 483.897 775.499 484.792C776.039 485.687 776.309 486.688 776.309 487.796C776.309 488.599 776.167 489.376 775.883 490.129C775.606 490.882 775.126 491.72 774.445 492.643C773.763 493.567 772.818 494.696 771.611 496.031L766.199 502.072L766.199 502.21L776.991 502.21L776.991 504L763.429 504ZM781.74 504L781.74 502.54L788.867 494.529C789.797 493.478 790.546 492.58 791.115 491.834C791.683 491.088 792.095 490.399 792.35 489.767C792.613 489.135 792.744 488.478 792.744 487.796C792.744 486.965 792.549 486.241 792.159 485.623C791.775 484.998 791.246 484.511 790.571 484.163C789.896 483.815 789.137 483.641 788.291 483.641C787.396 483.641 786.612 483.833 785.937 484.217C785.269 484.6 784.751 485.126 784.382 485.793C784.012 486.461 783.828 487.228 783.828 488.094L781.921 488.094C781.921 486.887 782.198 485.818 782.752 484.888C783.313 483.95 784.076 483.215 785.042 482.683C786.015 482.15 787.116 481.884 788.345 481.884C789.559 481.884 790.639 482.146 791.583 482.672C792.528 483.19 793.27 483.897 793.81 484.792C794.35 485.687 794.619 486.688 794.619 487.796C794.619 488.599 794.477 489.376 794.193 490.129C793.916 490.882 793.437 491.72 792.755 492.643C792.073 493.567 791.129 494.696 789.921 496.031L784.509 502.072L784.509 502.21L795.301 502.21L795.301 504L781.74 504ZM806.783 482.182L806.783 504L804.791 504L804.791 484.27L804.663 484.27L799.549 487.668L799.549 485.602L804.706 482.182L806.783 482.182ZM822.316 492.196L822.316 493.986L813.239 493.986L813.239 492.196L822.316 492.196ZM833.736 504.298C832.394 504.298 831.194 504.057 830.135 503.574C829.077 503.084 828.239 502.406 827.621 501.539C827.003 500.673 826.676 499.675 826.641 498.545L828.654 498.545C828.69 499.341 828.935 500.037 829.39 500.634C829.844 501.223 830.448 501.685 831.201 502.018C831.953 502.345 832.792 502.509 833.715 502.509C834.723 502.509 835.611 502.32 836.378 501.944C837.152 501.567 837.756 501.053 838.189 500.399C838.63 499.739 838.85 498.993 838.85 498.162C838.85 497.281 838.626 496.504 838.179 495.829C837.731 495.154 837.088 494.629 836.25 494.252C835.419 493.876 834.425 493.687 833.267 493.687L831.989 493.687L831.989 491.898L833.267 491.898C834.212 491.898 835.047 491.727 835.771 491.386C836.502 491.038 837.078 490.552 837.497 489.927C837.916 489.302 838.125 488.567 838.125 487.722C838.125 486.919 837.944 486.212 837.582 485.602C837.22 484.991 836.708 484.511 836.048 484.163C835.395 483.815 834.631 483.641 833.757 483.641C832.912 483.641 832.138 483.805 831.435 484.131C830.732 484.458 830.164 484.92 829.73 485.516C829.304 486.113 829.077 486.82 829.049 487.636L827.12 487.636C827.149 486.5 827.461 485.502 828.058 484.643C828.662 483.776 829.461 483.102 830.455 482.619C831.456 482.129 832.564 481.884 833.779 481.884C835.064 481.884 836.176 482.146 837.113 482.672C838.051 483.197 838.775 483.897 839.287 484.771C839.805 485.637 840.064 486.592 840.064 487.636C840.064 488.879 839.727 489.945 839.052 490.832C838.377 491.713 837.468 492.324 836.325 492.665L836.325 492.803C837.717 493.08 838.811 493.698 839.606 494.657C840.409 495.609 840.81 496.777 840.81 498.162C840.81 499.327 840.505 500.374 839.894 501.305C839.283 502.228 838.445 502.96 837.38 503.499C836.321 504.032 835.107 504.298 833.736 504.298Z" fill="black"/>
<path d="M987.429 504L987.429 502.54L994.556 494.529C995.487 493.478 996.236 492.58 996.804 491.834C997.372 491.088 997.784 490.399 998.04 489.767C998.303 489.135 998.434 488.478 998.434 487.796C998.434 486.965 998.239 486.241 997.848 485.623C997.464 484.998 996.935 484.511 996.261 484.163C995.586 483.815 994.826 483.641 993.981 483.641C993.086 483.641 992.301 483.833 991.626 484.217C990.959 484.6 990.44 485.126 990.071 485.793C989.702 486.461 989.517 487.228 989.517 488.094L987.61 488.094C987.61 486.887 987.887 485.818 988.441 484.888C989.002 483.95 989.766 483.215 990.732 482.683C991.705 482.15 992.805 481.884 994.034 481.884C995.249 481.884 996.328 482.146 997.273 482.672C998.217 483.19 998.96 483.897 999.499 484.792C1000.04 485.687 1000.31 486.688 1000.31 487.796C1000.31 488.599 1000.17 489.376 999.883 490.129C999.606 490.882 999.126 491.72 998.445 492.643C997.763 493.567 996.818 494.696 995.611 496.031L990.199 502.072L990.199 502.21L1000.99 502.21L1000.99 504L987.429 504ZM1005.74 504L1005.74 502.54L1012.87 494.529C1013.8 493.478 1014.55 492.58 1015.11 491.834C1015.68 491.088 1016.09 490.399 1016.35 489.767C1016.61 489.135 1016.74 488.478 1016.74 487.796C1016.74 486.965 1016.55 486.241 1016.16 485.623C1015.78 484.998 1015.25 484.511 1014.57 484.163C1013.9 483.815 1013.14 483.641 1012.29 483.641C1011.4 483.641 1010.61 483.833 1009.94 484.217C1009.27 484.6 1008.75 485.126 1008.38 485.793C1008.01 486.461 1007.83 487.228 1007.83 488.094L1005.92 488.094C1005.92 486.887 1006.2 485.818 1006.75 484.888C1007.31 483.95 1008.08 483.215 1009.04 482.683C1010.02 482.15 1011.12 481.884 1012.34 481.884C1013.56 481.884 1014.64 482.146 1015.58 482.672C1016.53 483.19 1017.27 483.897 1017.81 484.792C1018.35 485.687 1018.62 486.688 1018.62 487.796C1018.62 488.599 1018.48 489.376 1018.19 490.129C1017.92 490.882 1017.44 491.72 1016.76 492.643C1016.07 493.567 1015.13 494.696 1013.92 496.031L1008.51 502.072L1008.51 502.21L1019.3 502.21L1019.3 504L1005.74 504ZM1030.78 482.182L1030.78 504L1028.79 504L1028.79 484.27L1028.66 484.27L1023.55 487.668L1023.55 485.602L1028.71 482.182L1030.78 482.182ZM1046.32 492.196L1046.32 493.986L1037.24 493.986L1037.24 492.196L1046.32 492.196ZM1050.13 499.312L1050.13 497.693L1059.86 482.182L1061.05 482.182L1061.05 484.898L1060.17 484.898L1052.36 497.384L1052.36 497.523L1065.11 497.523L1065.11 499.312L1050.13 499.312ZM1060.31 504L1060.31 498.801L1060.31 498.055L1060.31 482.182L1062.21 482.182L1062.21 504L1060.31 504Z" fill="black"/>
<path d="M306.429 840L306.429 838.54L313.556 830.529C314.487 829.478 315.236 828.58 315.804 827.834C316.372 827.088 316.784 826.399 317.04 825.767C317.303 825.135 317.434 824.478 317.434 823.796C317.434 822.965 317.239 822.241 316.848 821.623C316.464 820.998 315.935 820.511 315.261 820.163C314.586 819.815 313.826 819.641 312.981 819.641C312.086 819.641 311.301 819.833 310.626 820.217C309.959 820.6 309.44 821.126 309.071 821.793C308.702 822.461 308.517 823.228 308.517 824.094L306.61 824.094C306.61 822.887 306.887 821.818 307.441 820.888C308.002 819.95 308.766 819.215 309.732 818.683C310.705 818.15 311.805 817.884 313.034 817.884C314.249 817.884 315.328 818.146 316.273 818.672C317.217 819.19 317.96 819.897 318.499 820.792C319.039 821.687 319.309 822.688 319.309 823.796C319.309 824.599 319.167 825.376 318.883 826.129C318.606 826.882 318.126 827.72 317.445 828.643C316.763 829.567 315.818 830.696 314.611 832.031L309.199 838.072L309.199 838.21L319.991 838.21L319.991 840L306.429 840ZM324.74 840L324.74 838.54L331.867 830.529C332.797 829.478 333.546 828.58 334.115 827.834C334.683 827.088 335.095 826.399 335.35 825.767C335.613 825.135 335.744 824.478 335.744 823.796C335.744 822.965 335.549 822.241 335.159 821.623C334.775 820.998 334.246 820.511 333.571 820.163C332.896 819.815 332.137 819.641 331.291 819.641C330.396 819.641 329.612 819.833 328.937 820.217C328.269 820.6 327.751 821.126 327.382 821.793C327.012 822.461 326.828 823.228 326.828 824.094L324.921 824.094C324.921 822.887 325.198 821.818 325.752 820.888C326.313 819.95 327.076 819.215 328.042 818.683C329.015 818.15 330.116 817.884 331.345 817.884C332.559 817.884 333.639 818.146 334.583 818.672C335.528 819.19 336.27 819.897 336.81 820.792C337.35 821.687 337.619 822.688 337.619 823.796C337.619 824.599 337.477 825.376 337.193 826.129C336.916 826.882 336.437 827.72 335.755 828.643C335.073 829.567 334.129 830.696 332.921 832.031L327.509 838.072L327.509 838.21L338.301 838.21L338.301 840L324.74 840ZM349.826 840.298C348.292 840.298 346.981 839.858 345.895 838.977C344.815 838.089 343.984 836.808 343.402 835.131C342.826 833.455 342.539 831.442 342.539 829.091C342.539 826.747 342.826 824.741 343.402 823.072C343.984 821.396 344.819 820.114 345.905 819.226C346.999 818.331 348.306 817.884 349.826 817.884C351.346 817.884 352.649 818.331 353.735 819.226C354.829 820.114 355.664 821.396 356.239 823.072C356.821 824.741 357.113 826.747 357.113 829.091C357.113 831.442 356.821 833.455 356.239 835.131C355.664 836.808 354.833 838.089 353.746 838.977C352.667 839.858 351.36 840.298 349.826 840.298ZM349.826 838.509C351.509 838.509 352.823 837.688 353.767 836.048C354.712 834.4 355.184 832.081 355.184 829.091C355.184 827.102 354.968 825.405 354.534 823.999C354.108 822.585 353.494 821.506 352.691 820.76C351.896 820.014 350.941 819.641 349.826 819.641C348.157 819.641 346.846 820.472 345.895 822.134C344.943 823.789 344.467 826.108 344.467 829.091C344.467 831.08 344.68 832.777 345.106 834.183C345.539 835.589 346.154 836.662 346.949 837.401C347.752 838.139 348.711 838.509 349.826 838.509ZM370.355 828.196L370.355 829.986L361.278 829.986L361.278 828.196L370.355 828.196ZM381.775 818.182L381.775 840L379.783 840L379.783 820.27L379.655 820.27L374.542 823.668L374.542 821.602L379.698 818.182L381.775 818.182Z" fill="black"/>
<path d="M517.429 846L517.429 844.54L524.556 836.529C525.487 835.478 526.236 834.58 526.804 833.834C527.372 833.088 527.784 832.399 528.04 831.767C528.303 831.135 528.434 830.478 528.434 829.796C528.434 828.965 528.239 828.241 527.848 827.623C527.464 826.998 526.935 826.511 526.261 826.163C525.586 825.815 524.826 825.641 523.981 825.641C523.086 825.641 522.301 825.833 521.626 826.217C520.959 826.6 520.44 827.126 520.071 827.793C519.702 828.461 519.517 829.228 519.517 830.094L517.61 830.094C517.61 828.887 517.887 827.818 518.441 826.888C519.002 825.95 519.766 825.215 520.732 824.683C521.705 824.15 522.805 823.884 524.034 823.884C525.249 823.884 526.328 824.146 527.273 824.672C528.217 825.19 528.96 825.897 529.499 826.792C530.039 827.687 530.309 828.688 530.309 829.796C530.309 830.599 530.167 831.376 529.883 832.129C529.606 832.882 529.126 833.72 528.445 834.643C527.763 835.567 526.818 836.696 525.611 838.031L520.199 844.072L520.199 844.21L530.991 844.21L530.991 846L517.429 846ZM535.74 846L535.74 844.54L542.867 836.529C543.797 835.478 544.546 834.58 545.115 833.834C545.683 833.088 546.095 832.399 546.35 831.767C546.613 831.135 546.744 830.478 546.744 829.796C546.744 828.965 546.549 828.241 546.159 827.623C545.775 826.998 545.246 826.511 544.571 826.163C543.896 825.815 543.137 825.641 542.291 825.641C541.396 825.641 540.612 825.833 539.937 826.217C539.269 826.6 538.751 827.126 538.382 827.793C538.012 828.461 537.828 829.228 537.828 830.094L535.921 830.094C535.921 828.887 536.198 827.818 536.752 826.888C537.313 825.95 538.076 825.215 539.042 824.683C540.015 824.15 541.116 823.884 542.345 823.884C543.559 823.884 544.639 824.146 545.583 824.672C546.528 825.19 547.27 825.897 547.81 826.792C548.35 827.687 548.619 828.688 548.619 829.796C548.619 830.599 548.477 831.376 548.193 832.129C547.916 832.882 547.437 833.72 546.755 834.643C546.073 835.567 545.129 836.696 543.921 838.031L538.509 844.072L538.509 844.21L549.301 844.21L549.301 846L535.74 846ZM560.826 846.298C559.292 846.298 557.981 845.858 556.895 844.977C555.815 844.089 554.984 842.808 554.402 841.131C553.826 839.455 553.539 837.442 553.539 835.091C553.539 832.747 553.826 830.741 554.402 829.072C554.984 827.396 555.819 826.114 556.905 825.226C557.999 824.331 559.306 823.884 560.826 823.884C562.346 823.884 563.649 824.331 564.735 825.226C565.829 826.114 566.664 827.396 567.239 829.072C567.821 830.741 568.113 832.747 568.113 835.091C568.113 837.442 567.821 839.455 567.239 841.131C566.664 842.808 565.833 844.089 564.746 844.977C563.667 845.858 562.36 846.298 560.826 846.298ZM560.826 844.509C562.509 844.509 563.823 843.688 564.767 842.048C565.712 840.4 566.184 838.081 566.184 835.091C566.184 833.102 565.968 831.405 565.534 829.999C565.108 828.585 564.494 827.506 563.691 826.76C562.896 826.014 561.941 825.641 560.826 825.641C559.157 825.641 557.846 826.472 556.895 828.134C555.943 829.789 555.467 832.108 555.467 835.091C555.467 837.08 555.68 838.777 556.106 840.183C556.539 841.589 557.154 842.662 557.949 843.401C558.752 844.139 559.711 844.509 560.826 844.509ZM581.355 834.196L581.355 835.986L572.278 835.986L572.278 834.196L581.355 834.196ZM585.017 846L585.017 844.54L592.144 836.529C593.074 835.478 593.824 834.58 594.392 833.834C594.96 833.088 595.372 832.399 595.628 831.767C595.89 831.135 596.022 830.478 596.022 829.796C596.022 828.965 595.827 828.241 595.436 827.623C595.052 826.998 594.523 826.511 593.849 826.163C593.174 825.815 592.414 825.641 591.569 825.641C590.674 825.641 589.889 825.833 589.214 826.217C588.547 826.6 588.028 827.126 587.659 827.793C587.29 828.461 587.105 829.228 587.105 830.094L585.198 830.094C585.198 828.887 585.475 827.818 586.029 826.888C586.59 825.95 587.354 825.215 588.319 824.683C589.292 824.15 590.393 823.884 591.622 823.884C592.836 823.884 593.916 824.146 594.861 824.672C595.805 825.19 596.547 825.897 597.087 826.792C597.627 827.687 597.897 828.688 597.897 829.796C597.897 830.599 597.755 831.376 597.471 832.129C597.194 832.882 596.714 833.72 596.032 834.643C595.351 835.567 594.406 836.696 593.199 838.031L587.787 844.072L587.787 844.21L598.579 844.21L598.579 846L585.017 846Z" fill="black"/>
<path d="M759.429 840L759.429 838.54L766.556 830.529C767.487 829.478 768.236 828.58 768.804 827.834C769.372 827.088 769.784 826.399 770.04 825.767C770.303 825.135 770.434 824.478 770.434 823.796C770.434 822.965 770.239 822.241 769.848 821.623C769.464 820.998 768.935 820.511 768.261 820.163C767.586 819.815 766.826 819.641 765.981 819.641C765.086 819.641 764.301 819.833 763.626 820.217C762.959 820.6 762.44 821.126 762.071 821.793C761.702 822.461 761.517 823.228 761.517 824.094L759.61 824.094C759.61 822.887 759.887 821.818 760.441 820.888C761.002 819.95 761.766 819.215 762.732 818.683C763.705 818.15 764.805 817.884 766.034 817.884C767.249 817.884 768.328 818.146 769.273 818.672C770.217 819.19 770.96 819.897 771.499 820.792C772.039 821.687 772.309 822.688 772.309 823.796C772.309 824.599 772.167 825.376 771.883 826.129C771.606 826.882 771.126 827.72 770.445 828.643C769.763 829.567 768.818 830.696 767.611 832.031L762.199 838.072L762.199 838.21L772.991 838.21L772.991 840L759.429 840ZM777.74 840L777.74 838.54L784.867 830.529C785.797 829.478 786.546 828.58 787.115 827.834C787.683 827.088 788.095 826.399 788.35 825.767C788.613 825.135 788.744 824.478 788.744 823.796C788.744 822.965 788.549 822.241 788.159 821.623C787.775 820.998 787.246 820.511 786.571 820.163C785.896 819.815 785.137 819.641 784.291 819.641C783.396 819.641 782.612 819.833 781.937 820.217C781.269 820.6 780.751 821.126 780.382 821.793C780.012 822.461 779.828 823.228 779.828 824.094L777.921 824.094C777.921 822.887 778.198 821.818 778.752 820.888C779.313 819.95 780.076 819.215 781.042 818.683C782.015 818.15 783.116 817.884 784.345 817.884C785.559 817.884 786.639 818.146 787.583 818.672C788.528 819.19 789.27 819.897 789.81 820.792C790.35 821.687 790.619 822.688 790.619 823.796C790.619 824.599 790.477 825.376 790.193 826.129C789.916 826.882 789.437 827.72 788.755 828.643C788.073 829.567 787.129 830.696 785.921 832.031L780.509 838.072L780.509 838.21L791.301 838.21L791.301 840L777.74 840ZM802.826 840.298C801.292 840.298 799.981 839.858 798.895 838.977C797.815 838.089 796.984 836.808 796.402 835.131C795.826 833.455 795.539 831.442 795.539 829.091C795.539 826.747 795.826 824.741 796.402 823.072C796.984 821.396 797.819 820.114 798.905 819.226C799.999 818.331 801.306 817.884 802.826 817.884C804.346 817.884 805.649 818.331 806.735 819.226C807.829 820.114 808.664 821.396 809.239 823.072C809.821 824.741 810.113 826.747 810.113 829.091C810.113 831.442 809.821 833.455 809.239 835.131C808.664 836.808 807.833 838.089 806.746 838.977C805.667 839.858 804.36 840.298 802.826 840.298ZM802.826 838.509C804.509 838.509 805.823 837.688 806.767 836.048C807.712 834.4 808.184 832.081 808.184 829.091C808.184 827.102 807.968 825.405 807.534 823.999C807.108 822.585 806.494 821.506 805.691 820.76C804.896 820.014 803.941 819.641 802.826 819.641C801.157 819.641 799.846 820.472 798.895 822.134C797.943 823.789 797.467 826.108 797.467 829.091C797.467 831.08 797.68 832.777 798.106 834.183C798.539 835.589 799.154 836.662 799.949 837.401C800.752 838.139 801.711 838.509 802.826 838.509ZM823.355 828.196L823.355 829.986L814.278 829.986L814.278 828.196L823.355 828.196ZM834.775 840.298C833.433 840.298 832.233 840.057 831.174 839.574C830.116 839.084 829.278 838.406 828.66 837.539C828.042 836.673 827.716 835.675 827.68 834.545L829.694 834.545C829.729 835.341 829.974 836.037 830.429 836.634C830.883 837.223 831.487 837.685 832.24 838.018C832.993 838.345 833.831 838.509 834.754 838.509C835.762 838.509 836.65 838.32 837.417 837.944C838.191 837.567 838.795 837.053 839.228 836.399C839.669 835.739 839.889 834.993 839.889 834.162C839.889 833.281 839.665 832.504 839.218 831.829C838.77 831.154 838.127 830.629 837.289 830.252C836.458 829.876 835.464 829.687 834.306 829.687L833.028 829.687L833.028 827.898L834.306 827.898C835.251 827.898 836.086 827.727 836.81 827.386C837.542 827.038 838.117 826.552 838.536 825.927C838.955 825.302 839.164 824.567 839.164 823.722C839.164 822.919 838.983 822.212 838.621 821.602C838.259 820.991 837.748 820.511 837.087 820.163C836.434 819.815 835.67 819.641 834.797 819.641C833.951 819.641 833.177 819.805 832.474 820.131C831.771 820.458 831.203 820.92 830.77 821.516C830.343 822.113 830.116 822.82 830.088 823.636L828.159 823.636C828.188 822.5 828.5 821.502 829.097 820.643C829.701 819.776 830.5 819.102 831.494 818.619C832.495 818.129 833.603 817.884 834.818 817.884C836.103 817.884 837.215 818.146 838.152 818.672C839.09 819.197 839.814 819.897 840.326 820.771C840.844 821.637 841.103 822.592 841.103 823.636C841.103 824.879 840.766 825.945 840.091 826.832C839.417 827.713 838.507 828.324 837.364 828.665L837.364 828.803C838.756 829.08 839.85 829.698 840.645 830.657C841.448 831.609 841.849 832.777 841.849 834.162C841.849 835.327 841.544 836.374 840.933 837.305C840.322 838.228 839.484 838.96 838.419 839.499C837.36 840.032 836.146 840.298 834.775 840.298Z" fill="black"/>
<path d="M978.429 840L978.429 838.54L985.556 830.529C986.487 829.478 987.236 828.58 987.804 827.834C988.372 827.088 988.784 826.399 989.04 825.767C989.303 825.135 989.434 824.478 989.434 823.796C989.434 822.965 989.239 822.241 988.848 821.623C988.464 820.998 987.935 820.511 987.261 820.163C986.586 819.815 985.826 819.641 984.981 819.641C984.086 819.641 983.301 819.833 982.626 820.217C981.959 820.6 981.44 821.126 981.071 821.793C980.702 822.461 980.517 823.228 980.517 824.094L978.61 824.094C978.61 822.887 978.887 821.818 979.441 820.888C980.002 819.95 980.766 819.215 981.732 818.683C982.705 818.15 983.805 817.884 985.034 817.884C986.249 817.884 987.328 818.146 988.273 818.672C989.217 819.19 989.96 819.897 990.499 820.792C991.039 821.687 991.309 822.688 991.309 823.796C991.309 824.599 991.167 825.376 990.883 826.129C990.606 826.882 990.126 827.72 989.445 828.643C988.763 829.567 987.818 830.696 986.611 832.031L981.199 838.072L981.199 838.21L991.991 838.21L991.991 840L978.429 840ZM996.74 840L996.74 838.54L1003.87 830.529C1004.8 829.478 1005.55 828.58 1006.11 827.834C1006.68 827.088 1007.09 826.399 1007.35 825.767C1007.61 825.135 1007.74 824.478 1007.74 823.796C1007.74 822.965 1007.55 822.241 1007.16 821.623C1006.78 820.998 1006.25 820.511 1005.57 820.163C1004.9 819.815 1004.14 819.641 1003.29 819.641C1002.4 819.641 1001.61 819.833 1000.94 820.217C1000.27 820.6 999.751 821.126 999.382 821.793C999.012 822.461 998.828 823.228 998.828 824.094L996.921 824.094C996.921 822.887 997.198 821.818 997.752 820.888C998.313 819.95 999.076 819.215 1000.04 818.683C1001.02 818.15 1002.12 817.884 1003.34 817.884C1004.56 817.884 1005.64 818.146 1006.58 818.672C1007.53 819.19 1008.27 819.897 1008.81 820.792C1009.35 821.687 1009.62 822.688 1009.62 823.796C1009.62 824.599 1009.48 825.376 1009.19 826.129C1008.92 826.882 1008.44 827.72 1007.76 828.643C1007.07 829.567 1006.13 830.696 1004.92 832.031L999.509 838.072L999.509 838.21L1010.3 838.21L1010.3 840L996.74 840ZM1021.83 840.298C1020.29 840.298 1018.98 839.858 1017.89 838.977C1016.81 838.089 1015.98 836.808 1015.4 835.131C1014.83 833.455 1014.54 831.442 1014.54 829.091C1014.54 826.747 1014.83 824.741 1015.4 823.072C1015.98 821.396 1016.82 820.114 1017.91 819.226C1019 818.331 1020.31 817.884 1021.83 817.884C1023.35 817.884 1024.65 818.331 1025.74 819.226C1026.83 820.114 1027.66 821.396 1028.24 823.072C1028.82 824.741 1029.11 826.747 1029.11 829.091C1029.11 831.442 1028.82 833.455 1028.24 835.131C1027.66 836.808 1026.83 838.089 1025.75 838.977C1024.67 839.858 1023.36 840.298 1021.83 840.298ZM1021.83 838.509C1023.51 838.509 1024.82 837.688 1025.77 836.048C1026.71 834.4 1027.18 832.081 1027.18 829.091C1027.18 827.102 1026.97 825.405 1026.53 823.999C1026.11 822.585 1025.49 821.506 1024.69 820.76C1023.9 820.014 1022.94 819.641 1021.83 819.641C1020.16 819.641 1018.85 820.472 1017.89 822.134C1016.94 823.789 1016.47 826.108 1016.47 829.091C1016.47 831.08 1016.68 832.777 1017.11 834.183C1017.54 835.589 1018.15 836.662 1018.95 837.401C1019.75 838.139 1020.71 838.509 1021.83 838.509ZM1042.35 828.196L1042.35 829.986L1033.28 829.986L1033.28 828.196L1042.35 828.196ZM1046.17 835.312L1046.17 833.693L1055.9 818.182L1057.09 818.182L1057.09 820.898L1056.2 820.898L1048.4 833.384L1048.4 833.523L1061.15 833.523L1061.15 835.312L1046.17 835.312ZM1056.35 840L1056.35 834.801L1056.35 834.055L1056.35 818.182L1058.25 818.182L1058.25 840L1056.35 840Z" fill="black"/>
<g filter="url(#filter11_d_659_3209)">
<rect x="393" y="1033" width="100" height="68" rx="10" fill="#D9D9D9"/>
</g>
<path d="M433.21 1057.22L433.21 1071.77L435.73 1071.77L435.73 1057.22L433.21 1057.22ZM418.24 1073.12L418.24 1083.98L435.73 1083.98L435.73 1073.12L433.27 1073.12L433.27 1076.42L420.7 1076.42L420.7 1073.12L418.24 1073.12ZM420.7 1078.4L433.27 1078.4L433.27 1081.97L420.7 1081.97L420.7 1078.4ZM421.18 1058.51C417.07 1058.51 414.1 1061.06 414.1 1064.75C414.1 1068.47 417.07 1071.02 421.18 1071.02C425.29 1071.02 428.23 1068.47 428.23 1064.75C428.23 1061.06 425.29 1058.51 421.18 1058.51ZM421.18 1060.58C423.88 1060.58 425.83 1062.29 425.83 1064.75C425.83 1067.21 423.88 1068.92 421.18 1068.92C418.48 1068.92 416.53 1067.21 416.53 1064.75C416.53 1062.29 418.48 1060.58 421.18 1060.58ZM444.158 1058.99L444.158 1061L461.108 1061L461.108 1058.99L444.158 1058.99ZM441.098 1070.63L441.098 1072.67L465.608 1072.67L465.608 1070.63L441.098 1070.63ZM452.048 1071.98L452.048 1084.37L454.538 1084.37L454.538 1071.98L452.048 1071.98ZM459.938 1058.99L459.938 1061.33C459.938 1064.06 459.938 1067.21 458.888 1071.59L461.348 1071.92C462.368 1067.33 462.368 1064.15 462.368 1061.33L462.368 1058.99L459.938 1058.99Z" fill="black"/>
<g filter="url(#filter12_d_659_3209)">
<mask id="mask0_659_3209" style="mask-type:alpha" maskUnits="userSpaceOnUse" x="652" y="1179" width="72" height="72">
</mask>
<g mask="url(#mask0_659_3209)">
<path d="M688 1219.2L673.3 1233.9C672.75 1234.45 672.05 1234.72 671.2 1234.72C670.35 1234.72 669.65 1234.45 669.1 1233.9C668.55 1233.35 668.275 1232.65 668.275 1231.8C668.275 1230.95 668.55 1230.25 669.1 1229.7L683.8 1215L669.1 1200.3C668.55 1199.75 668.275 1199.05 668.275 1198.2C668.275 1197.35 668.55 1196.65 669.1 1196.1C669.65 1195.55 670.35 1195.27 671.2 1195.27C672.05 1195.27 672.75 1195.55 673.3 1196.1L688 1210.8L702.7 1196.1C703.25 1195.55 703.95 1195.27 704.8 1195.27C705.65 1195.27 706.35 1195.55 706.9 1196.1C707.45 1196.65 707.725 1197.35 707.725 1198.2C707.725 1199.05 707.45 1199.75 706.9 1200.3L692.2 1215L706.9 1229.7C707.45 1230.25 707.725 1230.95 707.725 1231.8C707.725 1232.65 707.45 1233.35 706.9 1233.9C706.35 1234.45 705.65 1234.72 704.8 1234.72C703.95 1234.72 703.25 1234.45 702.7 1233.9L688 1219.2Z" fill="white"/>
</g>
</g>
<defs>
<filter id="filter0_ii_659_3209" x="0" y="0" width="1380" height="1296" filterUnits="userSpaceOnUse" color-interpolation-filters="sRGB">
<feFlood flood-opacity="0" result="BackgroundImageFix"/>
<feBlend mode="normal" in="SourceGraphic" in2="BackgroundImageFix" result="shape"/>
<feColorMatrix in="SourceAlpha" type="matrix" values="0 0 0 0 0 0 0 0 0 0 0 0 0 0 0 0 0 0 127 0" result="hardAlpha"/>
<feOffset dx="4" dy="16"/>
<feGaussianBlur stdDeviation="20"/>
<feComposite in2="hardAlpha" operator="arithmetic" k2="-1" k3="1"/>
<feColorMatrix type="matrix" values="0 0 0 0 0 0 0 0 0 0 0 0 0 0 0 0 0 0 0.25 0"/>
<feBlend mode="normal" in2="shape" result="effect1_innerShadow_659_3209"/>
<feColorMatrix in="SourceAlpha" type="matrix" values="0 0 0 0 0 0 0 0 0 0 0 0 0 0 0 0 0 0 127 0" result="hardAlpha"/>
<feOffset dx="4" dy="16"/>
<feGaussianBlur stdDeviation="20"/>
<feComposite in2="hardAlpha" operator="arithmetic" k2="-1" k3="1"/>
<feColorMatrix type="matrix" values="0 0 0 0 0 0 0 0 0 0 0 0 0 0 0 0 0 0 0.25 0"/>
<feBlend mode="normal" in2="effect1_innerShadow_659_3209" result="effect2_innerShadow_659_3209"/>
</filter>
<filter id="filter1_d_659_3209" x="209" y="308" width="958" height="808" filterUnits="userSpaceOnUse" color-interpolation-filters="sRGB">
<feFlood flood-opacity="0" result="BackgroundImageFix"/>
<feColorMatrix in="SourceAlpha" type="matrix" values="0 0 0 0 0 0 0 0 0 0 0 0 0 0 0 0 0 0 127 0" result="hardAlpha"/>
<feOffset dy="4"/>
<feGaussianBlur stdDeviation="2"/>
<feComposite in2="hardAlpha" operator="out"/>
<feColorMatrix type="matrix" values="0 0 0 0 0 0 0 0 0 0 0 0 0 0 0 0 0 0 0.25 0"/>
<feBlend mode="normal" in2="BackgroundImageFix" result="effect1_dropShadow_659_3209"/>
<feBlend mode="normal" in="SourceGraphic" in2="effect1_dropShadow_659_3209" result="shape"/>
</filter>
<filter id="filter2_d_659_3209" x="517" y="147" width="360" height="98" filterUnits="userSpaceOnUse" color-interpolation-filters="sRGB">
<feFlood flood-opacity="0" result="BackgroundImageFix"/>
<feColorMatrix in="SourceAlpha" type="matrix" values="0 0 0 0 0 0 0 0 0 0 0 0 0 0 0 0 0 0 127 0" result="hardAlpha"/>
<feOffset dy="4"/>
<feGaussianBlur stdDeviation="2"/>
<feComposite in2="hardAlpha" operator="out"/>
<feColorMatrix type="matrix" values="0 0 0 0 0 0 0 0 0 0 0 0 0 0 0 0 0 0 0.25 0"/>
<feBlend mode="normal" in2="BackgroundImageFix" result="effect1_dropShadow_659_3209"/>
<feBlend mode="normal" in="SourceGraphic" in2="effect1_dropShadow_659_3209" result="shape"/>
</filter>
<filter id="filter3_d_659_3209" x="259" y="401" width="148" height="188" filterUnits="userSpaceOnUse" color-interpolation-filters="sRGB">
<feFlood flood-opacity="0" result="BackgroundImageFix"/>
<feColorMatrix in="SourceAlpha" type="matrix" values="0 0 0 0 0 0 0 0 0 0 0 0 0 0 0 0 0 0 127 0" result="hardAlpha"/>
<feOffset dy="4"/>
<feGaussianBlur stdDeviation="2"/>
<feComposite in2="hardAlpha" operator="out"/>
<feColorMatrix type="matrix" values="0 0 0 0 0 0 0 0 0 0 0 0 0 0 0 0 0 0 0.25 0"/>
<feBlend mode="normal" in2="BackgroundImageFix" result="effect1_dropShadow_659_3209"/>
<feBlend mode="normal" in="SourceGraphic" in2="effect1_dropShadow_659_3209" result="shape"/>
</filter>
<filter id="filter4_d_659_3209" x="259" y="736" width="148" height="188" filterUnits="userSpaceOnUse" color-interpolation-filters="sRGB">
<feFlood flood-opacity="0" result="BackgroundImageFix"/>
<feColorMatrix in="SourceAlpha" type="matrix" values="0 0 0 0 0 0 0 0 0 0 0 0 0 0 0 0 0 0 127 0" result="hardAlpha"/>
<feOffset dy="4"/>
<feGaussianBlur stdDeviation="2"/>
<feComposite in2="hardAlpha" operator="out"/>
<feColorMatrix type="matrix" values="0 0 0 0 0 0 0 0 0 0 0 0 0 0 0 0 0 0 0.25 0"/>
<feBlend mode="normal" in2="BackgroundImageFix" result="effect1_dropShadow_659_3209"/>
<feBlend mode="normal" in="SourceGraphic" in2="effect1_dropShadow_659_3209" result="shape"/>
</filter>
<filter id="filter5_d_659_3209" x="729" y="736" width="148" height="188" filterUnits="userSpaceOnUse" color-interpolation-filters="sRGB">
<feFlood flood-opacity="0" result="BackgroundImageFix"/>
<feColorMatrix in="SourceAlpha" type="matrix" values="0 0 0 0 0 0 0 0 0 0 0 0 0 0 0 0 0 0 127 0" result="hardAlpha"/>
<feOffset dy="4"/>
<feGaussianBlur stdDeviation="2"/>
<feComposite in2="hardAlpha" operator="out"/>
<feColorMatrix type="matrix" values="0 0 0 0 0 0 0 0 0 0 0 0 0 0 0 0 0 0 0.25 0"/>
<feBlend mode="normal" in2="BackgroundImageFix" result="effect1_dropShadow_659_3209"/>
<feBlend mode="normal" in="SourceGraphic" in2="effect1_dropShadow_659_3209" result="shape"/>
</filter>
<filter id="filter6_d_659_3209" x="949" y="738" width="148" height="188" filterUnits="userSpaceOnUse" color-interpolation-filters="sRGB">
<feFlood flood-opacity="0" result="BackgroundImageFix"/>
<feColorMatrix in="SourceAlpha" type="matrix" values="0 0 0 0 0 0 0 0 0 0 0 0 0 0 0 0 0 0 127 0" result="hardAlpha"/>
<feOffset dy="4"/>
<feGaussianBlur stdDeviation="2"/>
<feComposite in2="hardAlpha" operator="out"/>
<feColorMatrix type="matrix" values="0 0 0 0 0 0 0 0 0 0 0 0 0 0 0 0 0 0 0.25 0"/>
<feBlend mode="normal" in2="BackgroundImageFix" result="effect1_dropShadow_659_3209"/>
<feBlend mode="normal" in="SourceGraphic" in2="effect1_dropShadow_659_3209" result="shape"/>
</filter>
<filter id="filter7_d_659_3209" x="488" y="736" width="148" height="188" filterUnits="userSpaceOnUse" color-interpolation-filters="sRGB">
<feFlood flood-opacity="0" result="BackgroundImageFix"/>
<feColorMatrix in="SourceAlpha" type="matrix" values="0 0 0 0 0 0 0 0 0 0 0 0 0 0 0 0 0 0 127 0" result="hardAlpha"/>
<feOffset dy="4"/>
<feGaussianBlur stdDeviation="2"/>
<feComposite in2="hardAlpha" operator="out"/>
<feColorMatrix type="matrix" values="0 0 0 0 0 0 0 0 0 0 0 0 0 0 0 0 0 0 0.25 0"/>
<feBlend mode="normal" in2="BackgroundImageFix" result="effect1_dropShadow_659_3209"/>
<feBlend mode="normal" in="SourceGraphic" in2="effect1_dropShadow_659_3209" result="shape"/>
</filter>
<filter id="filter8_d_659_3209" x="489" y="401" width="148" height="188" filterUnits="userSpaceOnUse" color-interpolation-filters="sRGB">
<feFlood flood-opacity="0" result="BackgroundImageFix"/>
<feColorMatrix in="SourceAlpha" type="matrix" values="0 0 0 0 0 0 0 0 0 0 0 0 0 0 0 0 0 0 127 0" result="hardAlpha"/>
<feOffset dy="4"/>
<feGaussianBlur stdDeviation="2"/>
<feComposite in2="hardAlpha" operator="out"/>
<feColorMatrix type="matrix" values="0 0 0 0 0 0 0 0 0 0 0 0 0 0 0 0 0 0 0.25 0"/>
<feBlend mode="normal" in2="BackgroundImageFix" result="effect1_dropShadow_659_3209"/>
<feBlend mode="normal" in="SourceGraphic" in2="effect1_dropShadow_659_3209" result="shape"/>
</filter>
<filter id="filter9_d_659_3209" x="729" y="401" width="148" height="188" filterUnits="userSpaceOnUse" color-interpolation-filters="sRGB">
<feFlood flood-opacity="0" result="BackgroundImageFix"/>
<feColorMatrix in="SourceAlpha" type="matrix" values="0 0 0 0 0 0 0 0 0 0 0 0 0 0 0 0 0 0 127 0" result="hardAlpha"/>
<feOffset dy="4"/>
<feGaussianBlur stdDeviation="2"/>
<feComposite in2="hardAlpha" operator="out"/>
<feColorMatrix type="matrix" values="0 0 0 0 0 0 0 0 0 0 0 0 0 0 0 0 0 0 0.25 0"/>
<feBlend mode="normal" in2="BackgroundImageFix" result="effect1_dropShadow_659_3209"/>
<feBlend mode="normal" in="SourceGraphic" in2="effect1_dropShadow_659_3209" result="shape"/>
</filter>
<filter id="filter10_d_659_3209" x="949" y="401" width="148" height="188" filterUnits="userSpaceOnUse" color-interpolation-filters="sRGB">
<feFlood flood-opacity="0" result="BackgroundImageFix"/>
<feColorMatrix in="SourceAlpha" type="matrix" values="0 0 0 0 0 0 0 0 0 0 0 0 0 0 0 0 0 0 127 0" result="hardAlpha"/>
<feOffset dy="4"/>
<feGaussianBlur stdDeviation="2"/>
<feComposite in2="hardAlpha" operator="out"/>
<feColorMatrix type="matrix" values="0 0 0 0 0 0 0 0 0 0 0 0 0 0 0 0 0 0 0.25 0"/>
<feBlend mode="normal" in2="BackgroundImageFix" result="effect1_dropShadow_659_3209"/>
<feBlend mode="normal" in="SourceGraphic" in2="effect1_dropShadow_659_3209" result="shape"/>
</filter>
<filter id="filter11_d_659_3209" x="389" y="1033" width="108" height="76" filterUnits="userSpaceOnUse" color-interpolation-filters="sRGB">
<feFlood flood-opacity="0" result="BackgroundImageFix"/>
<feColorMatrix in="SourceAlpha" type="matrix" values="0 0 0 0 0 0 0 0 0 0 0 0 0 0 0 0 0 0 127 0" result="hardAlpha"/>
<feOffset dy="4"/>
<feGaussianBlur stdDeviation="2"/>
<feComposite in2="hardAlpha" operator="out"/>
<feColorMatrix type="matrix" values="0 0 0 0 0 0 0 0 0 0 0 0 0 0 0 0 0 0 0.25 0"/>
<feBlend mode="normal" in2="BackgroundImageFix" result="effect1_dropShadow_659_3209"/>
<feBlend mode="normal" in="SourceGraphic" in2="effect1_dropShadow_659_3209" result="shape"/>
</filter>
<filter id="filter12_d_659_3209" x="652" y="1179" width="80" height="84" filterUnits="userSpaceOnUse" color-interpolation-filters="sRGB">
<feFlood flood-opacity="0" result="BackgroundImageFix"/>
<feColorMatrix in="SourceAlpha" type="matrix" values="0 0 0 0 0 0 0 0 0 0 0 0 0 0 0 0 0 0 127 0" result="hardAlpha"/>
<feOffset dx="4" dy="8"/>
<feGaussianBlur stdDeviation="2"/>
<feComposite in2="hardAlpha" operator="out"/>
<feColorMatrix type="matrix" values="0 0 0 0 0 0 0 0 0 0 0 0 0 0 0 0 0 0 0.25 0"/>
<feBlend mode="normal" in2="BackgroundImageFix" result="effect1_dropShadow_659_3209"/>
<feBlend mode="normal" in="SourceGraphic" in2="effect1_dropShadow_659_3209" result="shape"/>
</filter>
</defs>
</svg>
