<svg width="72" height="72" viewBox="0 0 72 72" fill="none" xmlns="http://www.w3.org/2000/svg">
<rect width="72" height="72" rx="36" fill="#303BA1"/>
<mask id="mask0_705_3059" style="mask-type:alpha" maskUnits="userSpaceOnUse" x="0" y="0" width="72" height="72">
<rect width="72" height="72" fill="#D9D9D9"/>
</mask>
<g mask="url(#mask0_705_3059)">
<path d="M36 57C35.15 57 34.438 56.712 33.864 56.136C33.288 55.562 33 54.85 33 54V39H18C17.15 39 16.437 38.712 15.861 38.136C15.287 37.562 15 36.85 15 36C15 35.15 15.287 34.437 15.861 33.861C16.437 33.287 17.15 33 18 33H33V18C33 17.15 33.288 16.437 33.864 15.861C34.438 15.287 35.15 15 36 15C36.85 15 37.563 15.287 38.139 15.861C38.713 16.437 39 17.15 39 18V33H54C54.85 33 55.562 33.287 56.136 33.861C56.712 34.437 57 35.15 57 36C57 36.85 56.712 37.562 56.136 38.136C55.562 38.712 54.85 39 54 39H39V54C39 54.85 38.713 55.562 38.139 56.136C37.563 56.712 36.85 57 36 57Z" fill="white"/>
</g>
</svg>
