<svg width="250" height="80" viewBox="0 0 250 80" fill="none" xmlns="http://www.w3.org/2000/svg">
<rect width="250" height="80" rx="10" fill="#233173"/>
<path d="M42.6566 42.8V50.25H46.8566V42.8H42.6566ZM62.4566 15.7V60.9H66.6066V15.7H62.4566ZM30.6066 52.3C38.9566 52.3 49.8566 52.2 59.9066 50.5L59.6066 47.45C49.8566 48.7 38.6066 48.8 30.0566 48.85L30.6066 52.3ZM31.0066 21.2V24.55H58.4566V21.2H31.0066ZM44.7066 27.15C38.2566 27.15 33.8566 30.45 33.8566 35.5C33.8566 40.6 38.2566 43.85 44.7066 43.85C51.2066 43.85 55.6066 40.6 55.6066 35.5C55.6066 30.45 51.2066 27.15 44.7066 27.15ZM44.7066 30.35C48.8066 30.35 51.6566 32.4 51.6566 35.5C51.6566 38.6 48.8066 40.65 44.7066 40.65C40.6566 40.65 37.8066 38.6 37.8066 35.5C37.8066 32.4 40.6566 30.35 44.7066 30.35ZM42.6566 15.7V23.05H46.8066V15.7H42.6566ZM88.6027 38.45V48.5H92.7527V38.45H88.6027ZM108.653 15.7V50.1H112.803V15.7H108.653ZM81.9527 56.5V59.9H113.903V56.5H81.9527ZM81.9527 46.75V57.45H86.1027V46.75H81.9527ZM76.1027 40C84.3027 40 95.2527 39.85 105.003 38.3L104.703 35.25C95.1027 36.5 83.9027 36.6 75.5527 36.6L76.1027 40ZM99.4527 42.4V45.45H109.703V42.4H99.4527ZM90.2527 17.55C83.6027 17.55 79.1027 20.65 79.1027 25.4C79.1027 30.2 83.6027 33.3 90.2527 33.3C96.8527 33.3 101.353 30.2 101.353 25.4C101.353 20.65 96.8527 17.55 90.2527 17.55ZM90.2527 20.65C94.4527 20.65 97.4027 22.5 97.4027 25.4C97.4027 28.3 94.4527 30.15 90.2527 30.15C86.0027 30.15 83.0527 28.3 83.0527 25.4C83.0527 22.5 86.0027 20.65 90.2527 20.65ZM164.751 15.65V60.9H168.951V15.65H164.751ZM167.801 34V37.45H176.151V34H167.801ZM153.201 20.55V21.2C153.201 33.15 146.951 42.8 134.451 49.15L136.751 52.35C151.351 45 157.251 33.4 157.251 20.55H153.201ZM136.551 20.55V23.95H155.351V20.55H136.551ZM213.047 15.7V39.95H217.247V15.7H213.047ZM188.097 42.2V60.3H217.247V42.2H213.147V47.7H192.197V42.2H188.097ZM192.197 51H213.147V56.95H192.197V51ZM192.997 17.85C186.147 17.85 181.197 22.1 181.197 28.25C181.197 34.45 186.147 38.7 192.997 38.7C199.847 38.7 204.747 34.45 204.747 28.25C204.747 22.1 199.847 17.85 192.997 17.85ZM192.997 21.3C197.497 21.3 200.747 24.15 200.747 28.25C200.747 32.35 197.497 35.2 192.997 35.2C188.497 35.2 185.247 32.35 185.247 28.25C185.247 24.15 188.497 21.3 192.997 21.3Z" fill="white"/>
</svg>
