<svg width="175" height="36" viewBox="0 0 175 36" fill="none" xmlns="http://www.w3.org/2000/svg">
<path d="M16.3 0L21.8407 10.9432L32.6 13.6235L25.265 23.067L26.374 35.6667L16.3 30.5599L6.22605 35.6667L7.335 23.067L0 13.6235L10.7593 10.9432L16.3 0Z" fill="#FFCB45"/>
<path d="M51.9 0L57.4406 10.9432L68.2 13.6235L60.865 23.067L61.9739 35.6667L51.9 30.5599L41.826 35.6667L42.935 23.067L35.6 13.6235L46.3593 10.9432L51.9 0Z" fill="#FFCB45"/>
<path d="M87.5 0L93.0406 10.9432L103.8 13.6235L96.465 23.067L97.5739 35.6667L87.5 30.5599L77.426 35.6667L78.535 23.067L71.2 13.6235L81.9593 10.9432L87.5 0Z" fill="#FFCB45"/>
<path d="M123.1 0L128.641 10.9432L139.4 13.6235L132.065 23.067L133.174 35.6667L123.1 30.5599L113.026 35.6667L114.135 23.067L106.8 13.6235L117.559 10.9432L123.1 0Z" fill="#F2F2F2"/>
<path d="M158.7 0L164.241 10.9432L175 13.6235L167.665 23.067L168.774 35.6667L158.7 30.5599L148.626 35.6667L149.735 23.067L142.4 13.6235L153.159 10.9432L158.7 0Z" fill="#F2F2F2"/>
</svg>
