<svg width="175" height="36" viewBox="0 0 175 36" fill="none" xmlns="http://www.w3.org/2000/svg">
<path d="M16.3 0.333984L21.8407 11.2772L32.6 13.9574L25.265 23.401L26.374 36.0007L16.3 30.8939L6.22604 36.0007L7.335 23.401L0 13.9574L10.7593 11.2772L16.3 0.333984Z" fill="#F2F2F2"/>
<path d="M51.9 0.333984L57.4406 11.2772L68.2 13.9574L60.865 23.401L61.9739 36.0007L51.9 30.8939L41.826 36.0007L42.935 23.401L35.6 13.9574L46.3593 11.2772L51.9 0.333984Z" fill="#F2F2F2"/>
<path d="M87.4999 0.333984L93.0406 11.2772L103.8 13.9574L96.4649 23.401L97.5739 36.0007L87.4999 30.8939L77.426 36.0007L78.5349 23.401L71.2 13.9574L81.9593 11.2772L87.4999 0.333984Z" fill="#F2F2F2"/>
<path d="M123.1 0.333984L128.641 11.2772L139.4 13.9574L132.065 23.401L133.174 36.0007L123.1 30.8939L113.026 36.0007L114.135 23.401L106.8 13.9574L117.559 11.2772L123.1 0.333984Z" fill="#F2F2F2"/>
<path d="M158.7 0.333984L164.241 11.2772L175 13.9574L167.665 23.401L168.774 36.0007L158.7 30.8939L148.626 36.0007L149.735 23.401L142.4 13.9574L153.159 11.2772L158.7 0.333984Z" fill="#F2F2F2"/>
</svg>
