<svg width="175" height="37" viewBox="0 0 175 37" fill="none" xmlns="http://www.w3.org/2000/svg">
<path d="M16.3451 0.666016L21.901 11.6102L32.6901 14.2907L25.3348 23.7351L26.4468 36.336L16.3451 31.2287L6.24329 36.336L7.35531 23.7351L5.6386e-05 14.2907L10.7891 11.6102L16.3451 0.666016Z" fill="#FFCB45"/>
<path d="M51.9787 0.666016L57.5155 11.6092L68.2674 14.2895L60.9375 23.733L62.0457 36.3327L51.9787 31.2259L41.9117 36.3327L43.0199 23.733L35.6899 14.2895L46.4418 11.6092L51.9787 0.666016Z" fill="#F2F2F2"/>
<path d="M87.5562 0.666016L93.093 11.6092L103.845 14.2895L96.515 23.733L97.6232 36.3327L87.5562 31.2259L77.4892 36.3327L78.5974 23.733L71.2675 14.2895L82.0193 11.6092L87.5562 0.666016Z" fill="#F2F2F2"/>
<path d="M123.134 0.666016L128.671 11.6092L139.422 14.2895L132.093 23.733L133.201 36.3327L123.134 31.2259L113.067 36.3327L114.175 23.733L106.845 14.2895L117.597 11.6092L123.134 0.666016Z" fill="#F2F2F2"/>
<path d="M158.711 0.666016L164.248 11.6092L175 14.2895L167.67 23.733L168.778 36.3327L158.711 31.2259L148.644 36.3327L149.752 23.733L142.422 14.2895L153.174 11.6092L158.711 0.666016Z" fill="#F2F2F2"/>
</svg>
