<svg width="175" height="37" viewBox="0 0 175 37" fill="none" xmlns="http://www.w3.org/2000/svg">
<path d="M16.3 0.666016L21.8407 11.6092L32.6 14.2895L25.265 23.733L26.3739 36.3327L16.3 31.2259L6.22603 36.3327L7.33498 23.733L-2.03848e-05 14.2895L10.7593 11.6092L16.3 0.666016Z" fill="#F2F2F2"/>
<path d="M6.22605 36.3327L16.3 31.2259V0.666016L10.7593 11.6092L0 14.2895L7.335 23.733L6.22605 36.3327Z" fill="#FFCB45"/>
<path d="M51.9 0.666016L57.4406 11.6092L68.2 14.2895L60.865 23.733L61.9739 36.3327L51.9 31.2259L41.826 36.3327L42.935 23.733L35.6 14.2895L46.3593 11.6092L51.9 0.666016Z" fill="#F2F2F2"/>
<path d="M87.4999 0.666016L93.0406 11.6092L103.8 14.2895L96.4649 23.733L97.5739 36.3327L87.4999 31.2259L77.426 36.3327L78.5349 23.733L71.1999 14.2895L81.9593 11.6092L87.4999 0.666016Z" fill="#F2F2F2"/>
<path d="M123.1 0.666016L128.641 11.6092L139.4 14.2895L132.065 23.733L133.174 36.3327L123.1 31.2259L113.026 36.3327L114.135 23.733L106.8 14.2895L117.559 11.6092L123.1 0.666016Z" fill="#F2F2F2"/>
<path d="M158.7 0.666016L164.241 11.6092L175 14.2895L167.665 23.733L168.774 36.3327L158.7 31.2259L148.626 36.3327L149.735 23.733L142.4 14.2895L153.159 11.6092L158.7 0.666016Z" fill="#F2F2F2"/>
</svg>
