<svg width="175" height="36" viewBox="0 0 175 36" fill="none" xmlns="http://www.w3.org/2000/svg">
<path d="M16.3062 0L21.849 10.9432L32.6125 13.6235L25.2747 23.067L26.3841 35.6667L16.3062 30.5599L6.22843 35.6667L7.33781 23.067L0 13.6235L10.7635 10.9432L16.3062 0Z" fill="#FFCB45"/>
<path d="M51.9188 0L57.4616 10.9432L68.225 13.6235L60.8872 23.067L61.9966 35.6667L51.9188 30.5599L41.841 35.6667L42.9504 23.067L35.6125 13.6235L46.376 10.9432L51.9188 0Z" fill="#FFCB45"/>
<path d="M87.5312 0L93.074 10.9432L103.837 13.6235L96.4997 23.067L97.609 35.6667L87.5312 30.5599L77.4534 35.6667L78.5628 23.067L71.225 13.6235L81.9884 10.9432L87.5312 0Z" fill="#FFCB45"/>
<path d="M123.113 0L128.645 10.9442L139.388 13.6247L132.064 23.0691L133.171 35.67L123.113 30.5627L113.054 35.67L114.161 23.0691L106.838 13.6247L117.58 10.9442L123.113 0Z" fill="#F2F2F2"/>
<path d="M113.054 35.67L123.113 30.5627V0L117.58 10.9442L106.838 13.6247L114.161 23.0691L113.054 35.67Z" fill="#FFCB45"/>
<path d="M158.694 0L164.237 10.9432L175 13.6235L167.662 23.067L168.772 35.6667L158.694 30.5599L148.616 35.6667L149.725 23.067L142.388 13.6235L153.151 10.9432L158.694 0Z" fill="#F2F2F2"/>
</svg>
