<svg width="468" height="173" viewBox="0 0 468 173" fill="none" xmlns="http://www.w3.org/2000/svg">
<g filter="url(#filter0_dd_152_1315)">
<path d="M73.8 29.6V35.9C73.8 50.1 62.5 61.9 40.4 67.9L45.6 78.2C72.7 70.8 87.7 54 87.7 29.6H73.8ZM45.5 29.6V40.1H83V29.6H45.5ZM104.2 24.3V76.1H117.5V24.3H104.2ZM88.2 46.2V57H106.1V46.2H88.2ZM56.5 79.8V115.9H117.5V79.8H56.5ZM104.4 90.3V105.4H69.6V90.3H104.4ZM148.692 29.6V40.2C148.692 50.7 143.592 62.2 130.692 67.9L137.692 78.2C152.792 71.7 159.092 56 159.092 40.2V29.6H148.692ZM151.092 29.6V40.2C151.092 55.6 157.192 69.8 171.592 75.7L178.592 65.6C166.392 60.5 161.492 50.5 161.492 40.2V29.6H151.092ZM198.292 24.4V80.5H210.892V24.4H198.292ZM187.192 46.8V57.6H201.892V46.8H187.192ZM178.692 25.8V80H191.092V25.8H178.692ZM147.292 84.5V95.1H197.692V116.9H210.892V84.5H147.292ZM314.161 24.3V70.8H327.461V24.3H314.161ZM283.261 27.8V35C283.261 47.4 274.261 57.6 251.061 62.2L255.461 72.9C283.561 66.8 297.761 52.4 297.761 27.8H283.261ZM256.361 27.8V38.4H288.861V27.8H256.361ZM294.161 35.8V45.9H315.861V35.8H294.161ZM293.561 53.8V63.8H315.361V53.8H293.561ZM266.261 74.2V84.6H314.161V89.9H266.461V111.2H279.761V99.7H327.461V74.2H266.261ZM266.461 105.6V116H329.361V105.6H266.461ZM345.853 33.5V44H385.753V33.5H345.853ZM357.753 60V91.4H370.853V60H357.753ZM380.453 33.5V41C380.453 49.9 380.453 60.6 378.053 75.4L391.053 76.6C393.553 61.2 393.553 50 393.553 41V33.5H380.453ZM401.453 24.3V116.9H414.753V24.3H401.453ZM410.853 61.5V72.5H427.153V61.5H410.853ZM342.353 98.2C358.453 98.2 379.253 97.8 397.953 94.6L397.253 84.9C379.053 87.2 357.453 87.5 341.153 87.5L342.353 98.2Z" fill="white"/>
</g>
<defs>
<filter id="filter0_dd_152_1315" x="0.399902" y="0.299805" width="466.753" height="172.6" filterUnits="userSpaceOnUse" color-interpolation-filters="sRGB">
<feFlood flood-opacity="0" result="BackgroundImageFix"/>
<feColorMatrix in="SourceAlpha" type="matrix" values="0 0 0 0 0 0 0 0 0 0 0 0 0 0 0 0 0 0 127 0" result="hardAlpha"/>
<feOffset dy="16"/>
<feGaussianBlur stdDeviation="20"/>
<feComposite in2="hardAlpha" operator="out"/>
<feColorMatrix type="matrix" values="0 0 0 0 0.376471 0 0 0 0 0.411765 0 0 0 0 0.745098 0 0 0 1 0"/>
<feBlend mode="color" in2="BackgroundImageFix" result="effect1_dropShadow_152_1315"/>
<feColorMatrix in="SourceAlpha" type="matrix" values="0 0 0 0 0 0 0 0 0 0 0 0 0 0 0 0 0 0 127 0" result="hardAlpha"/>
<feOffset dy="16"/>
<feGaussianBlur stdDeviation="20"/>
<feComposite in2="hardAlpha" operator="out"/>
<feColorMatrix type="matrix" values="0 0 0 0 0 0 0 0 0 0 0 0 0 0 0 0 0 0 0.25 0"/>
<feBlend mode="normal" in2="effect1_dropShadow_152_1315" result="effect2_dropShadow_152_1315"/>
<feBlend mode="normal" in="SourceGraphic" in2="effect2_dropShadow_152_1315" result="shape"/>
</filter>
</defs>
</svg>
