<svg width="250" height="80" viewBox="0 0 250 80" fill="none" xmlns="http://www.w3.org/2000/svg">
<rect width="250" height="80" fill="#233173"/>
<path d="M63.85 15.7V60.9H67.85V15.7H63.85ZM56.2 33.8V37.25H64.9V33.8H56.2ZM53.6 16.7V58.6H57.5V16.7H53.6ZM31.1 46.3V49.75H34.05C40.85 49.75 45.4 49.55 50.8 48.4L50.4 44.95C45.15 46.05 40.65 46.3 34.05 46.3H31.1ZM31.1 21.2V47.85H35.2V24.6H47.9V21.2H31.1ZM95.8461 25.75V29.2H109.496V25.75H95.8461ZM95.8461 40.05V43.5H109.496V40.05H95.8461ZM87.5461 19.15C80.9461 19.15 76.2961 25.3 76.2961 34.9C76.2961 44.55 80.9461 50.7 87.5461 50.7C94.0961 50.7 98.7961 44.55 98.7961 34.9C98.7961 25.3 94.0961 19.15 87.5461 19.15ZM87.5461 22.9C91.8961 22.9 94.8961 27.6 94.8961 34.9C94.8961 42.25 91.8961 47.05 87.5461 47.05C83.1961 47.05 80.1961 42.25 80.1961 34.9C80.1961 27.6 83.1961 22.9 87.5461 22.9ZM108.596 15.65V60.95H112.696V15.65H108.596ZM151.895 26.6V30.05H160.695V26.6H151.895ZM151.895 40.35V43.8H160.695V40.35H151.895ZM168.295 15.7V60.9H172.295V15.7H168.295ZM159.445 16.65V58.65H163.345V16.65H159.445ZM144.045 19.45C138.195 19.45 134.445 25.5 134.445 35.2C134.445 44.9 138.195 50.95 144.045 50.95C149.895 50.95 153.695 44.9 153.695 35.2C153.695 25.5 149.895 19.45 144.045 19.45ZM144.045 23.3C147.645 23.3 149.895 27.9 149.895 35.2C149.895 42.5 147.645 47.1 144.045 47.1C140.495 47.1 138.195 42.5 138.195 35.2C138.195 27.9 140.495 23.3 144.045 23.3ZM213.691 22.55V26.05H221.541V22.55H213.691ZM213.691 32.25V35.7H221.541V32.25H213.691ZM210.791 15.7V42.55H214.941V15.7H210.791ZM185.591 44.7V48.05H210.791V60.9H214.941V44.7H185.591ZM192.491 18.35C185.691 18.35 180.691 22.75 180.691 29.1C180.691 35.4 185.691 39.75 192.491 39.75C199.291 39.75 204.291 35.4 204.291 29.1C204.291 22.75 199.291 18.35 192.491 18.35ZM192.491 21.9C196.991 21.9 200.241 24.8 200.241 29.1C200.241 33.35 196.991 36.3 192.491 36.3C187.991 36.3 184.741 33.35 184.741 29.1C184.741 24.8 187.991 21.9 192.491 21.9Z" fill="white"/>
</svg>
