<svg width="312" height="137" viewBox="0 0 312 137" fill="none" xmlns="http://www.w3.org/2000/svg">
<g filter="url(#filter0_dd_386_2999)">
<path d="M79.3564 24.78V80.34H86.9164V24.78H79.3564ZM71.9164 46.14V52.56H81.1564V46.14H71.9164ZM66.9364 25.74V77.7H74.3164V25.74H66.9364ZM40.7764 61.26V67.8H44.6764C51.8164 67.8 57.6964 67.62 64.4164 66.3L63.8164 59.82C57.2164 61.02 51.5164 61.26 44.6764 61.26H40.7764ZM40.7764 31.2V64.38H48.6964V37.62H61.2964V31.2H40.7764ZM119.252 36.12V42.54H134.372V36.12H119.252ZM119.252 53.34V59.76H134.372V53.34H119.252ZM109.652 28.62C101.312 28.62 95.3117 36.3 95.3117 48.42C95.3117 60.66 101.312 68.34 109.652 68.34C117.932 68.34 123.992 60.66 123.992 48.42C123.992 36.3 117.932 28.62 109.652 28.62ZM109.652 35.88C113.732 35.88 116.432 40.26 116.432 48.42C116.432 56.7 113.732 61.14 109.652 61.14C105.632 61.14 102.872 56.7 102.872 48.42C102.872 40.26 105.632 35.88 109.652 35.88ZM133.112 24.72V80.46H141.032V24.72H133.112ZM203.713 24.84V67.14H211.693V24.84H203.713ZM196.453 38.58V44.94H206.713V38.58H196.453ZM196.453 50.52V56.82H206.713V50.52H196.453ZM165.373 30.6V36.84H195.853V30.6H165.373ZM180.973 38.82C173.413 38.82 167.953 43.32 167.953 49.74C167.953 56.16 173.413 60.66 180.973 60.66C188.533 60.66 193.993 56.16 193.993 49.74C193.993 43.32 188.533 38.82 180.973 38.82ZM180.973 44.94C184.213 44.94 186.493 46.68 186.493 49.74C186.493 52.86 184.213 54.54 180.973 54.54C177.733 54.54 175.453 52.86 175.453 49.74C175.453 46.68 177.733 44.94 180.973 44.94ZM177.013 24.66V34.44H184.993V24.66H177.013ZM174.913 73.02V79.38H212.893V73.02H174.913ZM174.913 63.66V75.96H182.953V63.66H174.913ZM256.508 24.84V62.28H264.488V24.84H256.508ZM261.668 40.5V47.1H271.448V40.5H261.668ZM245.888 62.82C233.888 62.82 226.988 65.94 226.988 71.64C226.988 77.34 233.888 80.4 245.888 80.4C257.888 80.4 264.788 77.34 264.788 71.64C264.788 65.94 257.888 62.82 245.888 62.82ZM245.888 68.58C253.328 68.58 256.748 69.48 256.748 71.64C256.748 73.74 253.328 74.64 245.888 74.64C238.328 74.64 234.968 73.74 234.968 71.64C234.968 69.48 238.328 68.58 245.888 68.58ZM232.988 49.26V57.42H240.968V49.26H232.988ZM220.628 60.84C230.288 60.84 243.008 60.72 254.648 58.68L254.048 53.28C242.828 54.78 229.628 54.84 219.728 54.84L220.628 60.84ZM221.168 28.74V34.5H252.668V28.74H221.168ZM236.948 35.88C228.728 35.88 223.388 38.88 223.388 43.8C223.388 48.72 228.728 51.72 236.948 51.72C245.168 51.72 250.448 48.72 250.448 43.8C250.448 38.88 245.168 35.88 236.948 35.88ZM236.948 40.98C240.728 40.98 242.888 41.94 242.888 43.8C242.888 45.72 240.728 46.62 236.948 46.62C233.168 46.62 230.948 45.72 230.948 43.8C230.948 41.94 233.168 40.98 236.948 40.98ZM232.988 24.36V31.26H240.968V24.36H232.988Z" fill="white"/>
</g>
<defs>
<filter id="filter0_dd_386_2999" x="0.776367" y="0.360352" width="310.672" height="136.1" filterUnits="userSpaceOnUse" color-interpolation-filters="sRGB">
<feFlood flood-opacity="0" result="BackgroundImageFix"/>
<feColorMatrix in="SourceAlpha" type="matrix" values="0 0 0 0 0 0 0 0 0 0 0 0 0 0 0 0 0 0 127 0" result="hardAlpha"/>
<feOffset dy="16"/>
<feGaussianBlur stdDeviation="20"/>
<feComposite in2="hardAlpha" operator="out"/>
<feColorMatrix type="matrix" values="0 0 0 0 0.376471 0 0 0 0 0.411765 0 0 0 0 0.745098 0 0 0 1 0"/>
<feBlend mode="color" in2="BackgroundImageFix" result="effect1_dropShadow_386_2999"/>
<feColorMatrix in="SourceAlpha" type="matrix" values="0 0 0 0 0 0 0 0 0 0 0 0 0 0 0 0 0 0 127 0" result="hardAlpha"/>
<feOffset dy="16"/>
<feGaussianBlur stdDeviation="20"/>
<feComposite in2="hardAlpha" operator="out"/>
<feColorMatrix type="matrix" values="0 0 0 0 0 0 0 0 0 0 0 0 0 0 0 0 0 0 0.25 0"/>
<feBlend mode="normal" in2="effect1_dropShadow_386_2999" result="effect2_dropShadow_386_2999"/>
<feBlend mode="normal" in="SourceGraphic" in2="effect2_dropShadow_386_2999" result="shape"/>
</filter>
</defs>
</svg>
