<svg width="250" height="80" viewBox="0 0 250 80" fill="none" xmlns="http://www.w3.org/2000/svg">
<rect width="250" height="80" fill="#233173"/>
<path d="M62.4 15.65V60.95H66.55V15.65H62.4ZM32.1 46.6V50.05H35.85C43.6 50.05 50.4 49.75 58.6 48.4L58.15 45C50.15 46.3 43.4 46.6 35.85 46.6H32.1ZM32 19.9V23.3H48.7V32.65H32.1V47.9H36.25V36.05H52.9V19.9H32ZM85.7461 42.65V60.9H89.8961V42.65H85.7461ZM101.896 42.65V60.9H106.096V42.65H101.896ZM75.4461 42.1V45.5H116.446V42.1H75.4461ZM80.5961 17.45V36.8H111.196V17.45H107.096V23.5H84.7461V17.45H80.5961ZM84.7461 26.9H107.096V33.35H84.7461V26.9ZM133.895 51.7V55.15H174.845V51.7H133.895ZM152.195 40.9V52.7H156.345V40.9H152.195ZM138.695 18.9V42H169.945V18.9H165.845V26.95H142.795V18.9H138.695ZM142.795 30.3H165.845V38.6H142.795V30.3ZM212.791 15.7V60.9H216.941V15.7H212.791ZM199.541 20.55V21.25C199.541 33.25 193.491 42.85 180.441 49.15L182.641 52.5C197.741 45.1 203.641 33.65 203.641 20.55H199.541ZM182.491 20.55V23.95H201.341V20.55H182.491Z" fill="white"/>
</svg>
