<svg width="309" height="137" viewBox="0 0 309 137" fill="none" xmlns="http://www.w3.org/2000/svg">
<g filter="url(#filter0_dd_266_2030)">
<path d="M65.3564 32.52V38.88H81.6764V32.52H65.3564ZM65.3564 46.02V52.38H81.6764V46.02H65.3564ZM78.7364 24.84V65.46H86.7164V24.84H78.7364ZM50.0564 73.02V79.38H87.9764V73.02H50.0564ZM50.0564 61.44V76.32H58.0364V61.44H50.0564ZM55.5764 28.08C47.2964 28.08 40.8764 34.08 40.8764 42.48C40.8764 50.76 47.2964 56.82 55.5764 56.82C63.7964 56.82 70.2164 50.76 70.2164 42.48C70.2164 34.08 63.7964 28.08 55.5764 28.08ZM55.5764 35.1C59.5964 35.1 62.6564 37.86 62.6564 42.48C62.6564 47.1 59.5964 49.86 55.5764 49.86C51.4964 49.86 48.4964 47.1 48.4964 42.48C48.4964 37.86 51.4964 35.1 55.5764 35.1ZM97.8717 28.8V35.22H121.632V28.8H97.8717ZM104.712 41.76V55.68H112.632V41.76H104.712ZM118.512 28.8V32.28C118.512 36.12 118.512 40.92 117.312 47.76L125.052 48.6C126.372 41.7 126.372 36.18 126.372 32.28V28.8H118.512ZM131.772 24.78V66.36H139.812V24.78H131.772ZM136.632 41.7V48.24H146.412V41.7H136.632ZM102.732 73.02V79.38H141.552V73.02H102.732ZM102.732 62.64V75H110.712V62.64H102.732ZM95.3517 58.92C104.892 58.92 117.792 58.68 129.252 56.52L128.772 50.88C117.612 52.44 104.232 52.62 94.6317 52.62L95.3517 58.92ZM172.073 49.56V55.92H211.133V49.56H172.073ZM166.253 67.56V74.1H216.533V67.56H166.253ZM187.313 52.44V69.66H195.293V52.44H187.313ZM172.073 28.56V52.32H180.053V34.98H210.713V28.56H172.073ZM249.408 42.12V48.54H264.048V42.12H249.408ZM234.288 29.04V37.08C234.288 47.64 230.088 58.38 220.608 62.76L225.588 69.18C236.028 63.96 240.768 51.06 240.768 37.08V29.04H234.288ZM235.968 29.04V37.08C235.968 50.94 240.348 63.18 250.788 68.22L255.528 61.86C246.348 57.78 242.328 47.64 242.328 37.08V29.04H235.968ZM260.088 24.72V80.46H268.008V24.72H260.088Z" fill="white"/>
</g>
<defs>
<filter id="filter0_dd_266_2030" x="0.876465" y="0.719727" width="307.132" height="135.74" filterUnits="userSpaceOnUse" color-interpolation-filters="sRGB">
<feFlood flood-opacity="0" result="BackgroundImageFix"/>
<feColorMatrix in="SourceAlpha" type="matrix" values="0 0 0 0 0 0 0 0 0 0 0 0 0 0 0 0 0 0 127 0" result="hardAlpha"/>
<feOffset dy="16"/>
<feGaussianBlur stdDeviation="20"/>
<feComposite in2="hardAlpha" operator="out"/>
<feColorMatrix type="matrix" values="0 0 0 0 0.376471 0 0 0 0 0.411765 0 0 0 0 0.745098 0 0 0 1 0"/>
<feBlend mode="color" in2="BackgroundImageFix" result="effect1_dropShadow_266_2030"/>
<feColorMatrix in="SourceAlpha" type="matrix" values="0 0 0 0 0 0 0 0 0 0 0 0 0 0 0 0 0 0 127 0" result="hardAlpha"/>
<feOffset dy="16"/>
<feGaussianBlur stdDeviation="20"/>
<feComposite in2="hardAlpha" operator="out"/>
<feColorMatrix type="matrix" values="0 0 0 0 0 0 0 0 0 0 0 0 0 0 0 0 0 0 0.25 0"/>
<feBlend mode="normal" in2="effect1_dropShadow_266_2030" result="effect2_dropShadow_266_2030"/>
<feBlend mode="normal" in="SourceGraphic" in2="effect2_dropShadow_266_2030" result="shape"/>
</filter>
</defs>
</svg>
