<svg width="250" height="80" viewBox="0 0 250 80" fill="none" xmlns="http://www.w3.org/2000/svg">
<rect width="250" height="80" fill="#233173"/>
<path d="M38.9 24V25.45C38.9 31.2 35.55 36.65 29.8 38.95L31.85 42.05C38.4 39.3 42.05 32.75 42.05 25.45V24H38.9ZM39.7 24V25.45C39.7 32.4 43.35 38.65 50 41.25L51.95 38.15C46.25 35.95 42.8 30.85 42.8 25.45V24H39.7ZM30.7 21.65V25H50.85V21.65H30.7ZM38.9 16.2V23.05H42.8V16.2H38.9ZM63.6 15.75V43.45H67.55V15.75H63.6ZM56.3 27.75V31.15H64.85V27.75H56.3ZM54 16.5V43.15H57.9V16.5H54ZM37.25 45.85V49.2H63.45V60.9H67.55V45.85H37.25ZM90.1461 18.95C83.0961 18.95 77.9961 23.3 77.9961 29.6C77.9961 35.95 83.0961 40.3 90.1461 40.3C97.1961 40.3 102.246 35.95 102.246 29.6C102.246 23.3 97.1961 18.95 90.1461 18.95ZM90.1461 22.55C94.7961 22.55 98.1961 25.4 98.1961 29.6C98.1961 33.8 94.7961 36.7 90.1461 36.7C85.4461 36.7 82.0461 33.8 82.0461 29.6C82.0461 25.4 85.4461 22.55 90.1461 22.55ZM108.146 15.65V60.95H112.296V15.65H108.146ZM76.2961 51.05C84.3461 51.05 95.3961 51 105.546 49.05L105.196 46C95.3461 47.55 83.9461 47.6 75.6961 47.6L76.2961 51.05ZM148.645 17.8C141.945 17.8 137.145 21.55 137.145 27.1C137.145 32.6 141.945 36.45 148.645 36.45C155.395 36.45 160.195 32.6 160.195 27.1C160.195 21.55 155.395 17.8 148.645 17.8ZM148.645 21.25C153.045 21.25 156.195 23.65 156.195 27.1C156.195 30.6 153.045 32.95 148.645 32.95C144.245 32.95 141.095 30.6 141.095 27.1C141.095 23.65 144.245 21.25 148.645 21.25ZM146.795 41.45V59.5H150.945V41.45H146.795ZM166.795 15.7V60.95H170.895V15.7H166.795ZM134.345 43.7C142.595 43.7 153.695 43.55 163.895 41.7L163.595 38.6C153.645 40.1 142.195 40.2 133.795 40.2L134.345 43.7ZM212.741 15.7V60.9H216.891V15.7H212.741ZM192.391 26.45V30.3C192.391 38.2 187.391 45.9 180.691 49L183.041 52.2C190.291 48.7 195.741 39.95 195.741 30.3V26.45H192.391ZM193.191 26.45V30.3C193.191 39.65 198.741 48.1 206.041 51.4L208.391 48.15C201.641 45.2 196.491 37.85 196.491 30.3V26.45H193.191ZM181.941 23.55V26.9H206.841V23.55H181.941ZM192.391 16.5V25.4H196.541V16.5H192.391Z" fill="white"/>
</svg>
